<svg xmlns="http://www.w3.org/2000/svg" width="48" height="48" viewBox="0 0 48 48"><defs><style>.a{fill:#f7941d;}.b{fill:#fff;}</style></defs><g transform="translate(-1424 -5732)"><path class="a" d="M17.976.1H.488V17.745A24.885,24.885,0,0,1,17.976.1Z" transform="translate(1423.512 5731.898)"/><path class="a" d="M38.318,17.745V.1H20.828A24.889,24.889,0,0,1,38.318,17.745Z" transform="translate(1433.682 5731.898)"/><path class="a" d="M20.828,37.983h17.49V20.339A24.891,24.891,0,0,1,20.828,37.983Z" transform="translate(1433.682 5742.017)"/><path class="a" d="M.488,20.339V37.983H17.976A24.887,24.887,0,0,1,.488,20.339Z" transform="translate(1423.512 5742.017)"/><ellipse class="a" cx="20.378" cy="20.416" rx="20.378" ry="20.416" transform="translate(1427.622 5735.584)"/><path class="b" d="M29.519,21.187a4.487,4.487,0,0,0-2.291-2.715,5.651,5.651,0,0,0-.9-.372c-.157-.049-.318-.093-.479-.131-.061-.014-.45-.13-.489-.088a5.328,5.328,0,0,0,1.111-1.8,3.393,3.393,0,0,0,.036-1.906,3.854,3.854,0,0,0-.877-1.7,5.092,5.092,0,0,0-3.8-1.531,6.01,6.01,0,0,0-1.407.191l-.37.095-.937-3.648-2.169.558.93,3.636-1.734.447-.934-3.625-2.167.556.933,3.637L9.506,13.941l.594,2.316,1.8-.464a1.116,1.116,0,0,1,1.359.805l2.5,9.751a.746.746,0,0,1-.535.907l-1.58.408.093,2.755,4.467-1.15.945,3.63,2.167-.558L20.388,28.7l1.734-.446.935,3.637,2.167-.558-.937-3.652.9-.236a6.513,6.513,0,0,0,3.291-2.01,4.692,4.692,0,0,0,1.147-3.747A4.038,4.038,0,0,0,29.519,21.187Zm-12.726-6.5c.37-.094,1.9-.48,2.4-.611a2.882,2.882,0,0,1,3.195,1.056,2.05,2.05,0,0,1,.083,1.56,2.285,2.285,0,0,1-.9,1.189,3.484,3.484,0,0,1-1.245.594c-.506.131-2.032.531-2.4.627Zm8.5,7.53a1.572,1.572,0,0,1,.03.279c.028,1.491-1.459,2.526-2.752,2.86-.6.154-2.406.629-2.847.741l-1.23-4.8c.438-.114,2.251-.571,2.85-.726a3.838,3.838,0,0,1,3.124.417A2,2,0,0,1,25.29,22.218Z" transform="translate(1428.021 5735.636)"/></g></svg>