<svg xmlns="http://www.w3.org/2000/svg" width="48" height="48" viewBox="0 0 48 48"><defs><style>.a{fill:#f9ad17;}.b{fill:#fcfcfc;}</style></defs><g transform="translate(-1504 -5732)"><circle class="a" cx="24" cy="24" r="24" transform="translate(1504 5732)"/><path class="b" d="M150.12,159h10.44l1.6.24a11.411,11.411,0,0,1,6.6,3.8l1.12,1.6.84,1.72h2.76v2.56h-2.2l-.04.04v2.76h2.24v2.64h-2.92l-.04.2a11.135,11.135,0,0,1-5.96,6.04l-1.92.64-1.28.24c-.317.058-.347.036-.64.08h-10.6V174.4l-.04-.04H147v-2.64h3.12v-2.8H147v-2.56h3.12Zm2.56,2.32v4.96h15.04l-.32-.72-.88-1.2a8.666,8.666,0,0,0-4.72-2.8l-.88-.16-.72-.08Zm0,7.6v2.8h15.84l.08-.08v-2.56l-.08-.16Zm0,5.44v4.88h7.36l1.36-.16a10.114,10.114,0,0,0,4.32-2,8.713,8.713,0,0,0,2-2.56v-.16Z" transform="translate(1368.76 5586.279)"/></g></svg>