<svg xmlns="http://www.w3.org/2000/svg" width="60" height="60"><defs><style>.a,.d,.e{fill:none}.d,.e{stroke:#0080ff;stroke-linejoin:round}.d{stroke-width:2px}.e{stroke-width:4px}</style></defs><path class="a" d="M0 0h60v60H0z"/><rect width="40" height="26" rx="4" transform="translate(10 24)" opacity=".15" fill="#0080ff"/><g transform="translate(10 24)" stroke-width="2" stroke-linecap="round" stroke="#0080ff" stroke-linejoin="round" fill="none"><rect width="40" height="26" rx="4" stroke="none"/><rect class="a" x="1" y="1" width="38" height="24" rx="3"/></g><path class="d" d="M16 40v5"/><path class="e" d="M20 40v5"/><path class="d" d="M24 40v5m4-5v5"/><path class="e" d="M32 40v5"/><path class="d" d="M37 40v5"/><path class="e" d="M43 40v5"/><path d="M42.637 16.436a4 4 0 00-5.246-2.116L19.327 22h5.112l13.735-5.839a1.974 1.974 0 01.78-.161 2 2 0 011.846 1.218L42.83 22H45zm-9.017-2.685l-3.1-2.746a4 4 0 00-5.646.344L15.443 22h2.671l8.255-9.326a2 2 0 012.824-.171l2.389 2.114z" fill="#0080ff"/></svg>