<svg xmlns="http://www.w3.org/2000/svg" width="24" height="24"><path fill="none" d="M0 0h24v24H0z"/><path d="M18.313 12.763a5.453 5.453 0 012.6-4.576 5.587 5.587 0 00-4.4-2.378c-1.851-.195-3.646 1.107-4.589 1.107-.962 0-2.414-1.088-3.979-1.056a5.858 5.858 0 00-4.931 3.007c-2.132 3.691-.542 9.114 1.5 12.1 1.022 1.462 2.216 3.092 3.779 3.035 1.529-.062 2.1-.974 3.946-.974 1.828 0 2.365.974 3.959.937 1.641-.025 2.674-1.468 3.66-2.942a12.058 12.058 0 001.674-3.408 5.276 5.276 0 01-3.219-4.852zm-3.008-8.916A5.367 5.367 0 0016.534 0a5.47 5.47 0 00-3.539 1.825 5.107 5.107 0 00-1.261 3.7 4.518 4.518 0 003.571-1.678z" fill="#fff"/></svg>