<svg xmlns="http://www.w3.org/2000/svg" width="48" height="48" viewBox="0 0 48 48"><defs><style>.a{opacity:0.4;}.b{fill:#2b56f5;}</style></defs><g class="a" transform="translate(-2595 -632)"><rect class="b" width="6" height="6" transform="translate(2595 662)"/><rect class="b" width="6" height="6" transform="translate(2595 644)"/><rect class="b" width="6" height="6" transform="translate(2595 632)"/><rect class="b" width="6" height="6" transform="translate(2607 674)"/><rect class="b" width="6" height="6" transform="translate(2601 668)"/><path class="b" d="M2621,632h-12v6h-6v6h6v6h6v-6h6a12,12,0,0,1,0,24h-6v6h6v6a24,24,0,0,0,24-24h0A24,24,0,0,0,2621,632Z" transform="translate(-2)"/><path class="b" d="M2609,674h6V662h-6v-6h-6v12h6Z" transform="translate(-2 -6)"/></g></svg>