<svg xmlns="http://www.w3.org/2000/svg" width="100" height="19.795" viewBox="0 0 100 19.795"><defs><style>.a{fill:#0080ff;}</style></defs><g transform="translate(-50.277 -57.082)"><g transform="translate(79.118 63.309)"><g transform="translate(0 0)"><path class="a" d="M138.467,79.676q-.5,1.9-1.065,3.784t-1.19,3.783H133.3q-.453-1.053-.98-2.505t-1.093-3.17q-.565-1.716-1.156-3.634t-1.144-3.871h3.934q.2.9.441,1.966t.5,2.193q.265,1.128.555,2.268t.593,2.193q.325-1.1.639-2.256t.6-2.268q.288-1.114.551-2.155t.464-1.942h2.706q.2.9.451,1.942t.526,2.155q.275,1.115.576,2.268t.626,2.256q.3-1.053.605-2.193t.567-2.268q.265-1.128.5-2.193t.441-1.966H148.1q-.553,1.954-1.144,3.871T145.8,81.568q-.565,1.716-1.106,3.17t-.992,2.505H140.8q-.626-1.9-1.228-3.783T138.467,79.676Z" transform="translate(-128.932 -74.063)"/></g></g><g transform="translate(66.113 63.045)"><g transform="translate(0 0)"><path class="a" d="M93.466,74.1a20.822,20.822,0,0,1,2.456-.514,20.126,20.126,0,0,1,3.157-.239,7.7,7.7,0,0,1,2.794.439,4.212,4.212,0,0,1,1.767,1.24,4.847,4.847,0,0,1,.927,1.905,10.111,10.111,0,0,1,.276,2.455v7.442h-3.733V79.835a5.034,5.034,0,0,0-.476-2.556,1.943,1.943,0,0,0-1.779-.752q-.4,0-.852.038c-.3.024-.568.054-.8.087V86.826H93.466Z" transform="translate(-93.466 -73.345)"/></g></g><g transform="translate(99.139 62.996)"><path class="a" d="M189.148,73.209a8.643,8.643,0,0,1,2.756.376,4.283,4.283,0,0,1,1.767,1.078,3.966,3.966,0,0,1,.939,1.7,8.409,8.409,0,0,1,.276,2.23v7.768q-.8.175-2.23.413a21.514,21.514,0,0,1-3.458.238,10.963,10.963,0,0,1-2.318-.226,5.024,5.024,0,0,1-1.792-.738,3.382,3.382,0,0,1-1.152-1.341,4.629,4.629,0,0,1-.4-2.03A3.842,3.842,0,0,1,184,80.727a3.574,3.574,0,0,1,1.24-1.279,5.639,5.639,0,0,1,1.779-.689,10.008,10.008,0,0,1,2.08-.213,11.809,11.809,0,0,1,1.291.063,5.806,5.806,0,0,1,.914.162v-.35a2.067,2.067,0,0,0-.576-1.529,2.789,2.789,0,0,0-2-.577,12.74,12.74,0,0,0-1.88.138,8.069,8.069,0,0,0-1.6.389l-.476-3.007c.217-.066.488-.138.814-.213s.681-.142,1.065-.2.789-.109,1.215-.15S188.714,73.209,189.148,73.209Zm.3,10.925c.367,0,.718-.008,1.053-.025a6.943,6.943,0,0,0,.8-.075V81.2q-.225-.05-.677-.1a7.319,7.319,0,0,0-1.816.012,2.6,2.6,0,0,0-.814.239,1.388,1.388,0,0,0-.551.476,1.323,1.323,0,0,0-.2.751,1.28,1.28,0,0,0,.589,1.216A3.251,3.251,0,0,0,189.449,84.134Z" transform="translate(-183.535 -73.209)"/></g><g transform="translate(126.397 62.996)"><g transform="translate(0)"><path class="a" d="M257.874,80.25a8.052,8.052,0,0,1,.539-3.069,6.57,6.57,0,0,1,1.416-2.193,5.88,5.88,0,0,1,2.017-1.328,6.313,6.313,0,0,1,2.343-.451,5.824,5.824,0,0,1,4.435,1.716,7.073,7.073,0,0,1,1.629,5.049q0,.326-.025.714c-.016.259-.034.488-.05.689h-8.469a2.479,2.479,0,0,0,1.078,1.829,4.329,4.329,0,0,0,2.556.677,10.746,10.746,0,0,0,2.017-.188,7.6,7.6,0,0,0,1.616-.463l.5,3.032a5.059,5.059,0,0,1-.8.3,10.344,10.344,0,0,1-1.115.263q-.614.113-1.316.188a12.942,12.942,0,0,1-1.4.075,8.294,8.294,0,0,1-3.094-.526,6.014,6.014,0,0,1-2.18-1.44,5.707,5.707,0,0,1-1.277-2.167A8.588,8.588,0,0,1,257.874,80.25Zm8.77-1.428a3.858,3.858,0,0,0-.163-.927,2.322,2.322,0,0,0-.426-.8,2.277,2.277,0,0,0-.727-.576,2.368,2.368,0,0,0-1.09-.225,2.511,2.511,0,0,0-1.078.212,2.228,2.228,0,0,0-.752.565,2.52,2.52,0,0,0-.464.814,5.355,5.355,0,0,0-.238.941Z" transform="translate(-257.874 -73.209)"/></g></g><g transform="translate(141.532 59.462)"><g transform="translate(0 0)"><path class="a" d="M299.15,65.964l3.734-2.391v3.885h4.485v3.107h-4.485V75.2a3.688,3.688,0,0,0,.414,1.88,1.774,1.774,0,0,0,1.666.7,7.133,7.133,0,0,0,1.24-.113,6.375,6.375,0,0,0,1.165-.313l.526,2.907a10.658,10.658,0,0,1-1.5.476,8.789,8.789,0,0,1-2.03.2,6.687,6.687,0,0,1-2.531-.413,3.965,3.965,0,0,1-1.6-1.153,4.288,4.288,0,0,1-.839-1.792,10.549,10.549,0,0,1-.238-2.33Z" transform="translate(-299.15 -63.573)"/></g></g><path class="a" d="M244.163,76.527V59.473l-3.733-2.391V76.527Z" transform="translate(-120.429)"/><path class="a" d="M227.451,76.527V57.082l-3.733,2.391V76.527Z" transform="translate(-109.845)"/><path class="a" d="M62.756,77.294a6.384,6.384,0,0,0-1.328-2.18,5.952,5.952,0,0,0-2.042-1.4,7.02,7.02,0,0,0-5.212,0,6.074,6.074,0,0,0-2.055,1.4,6.414,6.414,0,0,0-1.353,2.18,7.868,7.868,0,0,0-.489,2.832,8.154,8.154,0,0,0,.476,2.844,6.471,6.471,0,0,0,1.328,2.205,5.849,5.849,0,0,0,2.031,1.41l2.7-2.7h-.041a2.268,2.268,0,0,1-1.98-1.015,4.75,4.75,0,0,1-.7-2.743,4.631,4.631,0,0,1,.7-2.719,2.285,2.285,0,0,1,1.98-.99,2.253,2.253,0,0,1,1.967.99,4.693,4.693,0,0,1,.689,2.719,4.814,4.814,0,0,1-.689,2.743,2.226,2.226,0,0,1-1.922,1.013h0v3.207a6.81,6.81,0,0,0,2.622-.5,5.865,5.865,0,0,0,2.042-1.416,6.183,6.183,0,0,0,1.3-2.205,8.567,8.567,0,0,0,.451-2.844A8.063,8.063,0,0,0,62.756,77.294Z" transform="translate(0 -10.213)"/></g></svg>