<svg xmlns="http://www.w3.org/2000/svg" width="48" height="48" viewBox="0 0 48 48"><defs><style>.a{opacity:0.4;}.b{fill:#2b56f5;}.c{fill:#fff;}</style></defs><g class="a" transform="translate(-1464 -5732)"><circle class="b" cx="24" cy="24" r="24" transform="translate(1464 5732)"/><path class="c" d="M16.6,37.126c0,.6-.4.8-1,.8a18.04,18.04,0,0,1,0-34.4c.6-.2,1,.2,1,.8v1.4a1.1,1.1,0,0,1-.6,1,14.9,14.9,0,0,0,0,28,1.1,1.1,0,0,1,.6,1Z" transform="translate(1467 5735.473)"/><path class="c" d="M17.1,29.5a.86.86,0,0,1-.8.8H14.7a.86.86,0,0,1-.8-.8V27.1a5.783,5.783,0,0,1-5.4-4.8c0-.4.2-.8.6-.8h1.8c.4,0,.6.2.8.6.4,1.4,1.2,2.6,3.8,2.6,2,0,3.4-1,3.4-2.6s-.8-2.2-3.6-2.6c-4.2-.6-6.2-1.8-6.2-5.2,0-2.6,2-4.6,4.8-5V6.9a.86.86,0,0,1,.8-.8h1.6a.86.86,0,0,1,.8.8V9.3a4.9,4.9,0,0,1,4.4,4c0,.4-.2.8-.6.8H19.3c-.4,0-.6-.2-.8-.6-.4-1.4-1.4-2-3.2-2-2,0-3,1-3,2.4s.6,2.2,3.6,2.6c4.2.6,6.2,1.8,6.2,5.2,0,2.6-2,4.8-5,5.4Z" transform="translate(1472.5 5738.1)"/><path class="c" d="M15.2,37.9c-.6.2-1-.2-1-.8V35.7a1.1,1.1,0,0,1,.6-1,14.9,14.9,0,0,0,0-28,1.1,1.1,0,0,1-.6-1V4.3c0-.6.4-.8,1-.8A18.328,18.328,0,0,1,27.8,20.7,18.07,18.07,0,0,1,15.2,37.9Z" transform="translate(1478.2 5735.5)"/></g></svg>