<svg xmlns="http://www.w3.org/2000/svg" width="60" height="60"><defs><style>.a{fill:none}.d{fill:#0080ff}.e{stroke-linecap:round;stroke-linejoin:round;fill:#fff;stroke:#0080ff;stroke-width:2px}.g{stroke:none}</style></defs><path class="a" d="M0 0h60v60H0z"/><path d="M48 39a4 4 0 014-4v-4a2 2 0 00-2-2H10a2 2 0 00-2 2v4a4 4 0 010 8v4a2 2 0 002 2h40a2 2 0 002-2v-4a4 4 0 01-4-4z" opacity=".15" fill="#0080ff"/><g stroke-linecap="round" stroke-linejoin="round" fill="none"><path class="g" d="M48 39a4 4 0 014-4v-4a2 2 0 00-2-2H10a2 2 0 00-2 2v4a4 4 0 010 8v4a2 2 0 002 2h40a2 2 0 002-2v-4a4 4 0 01-4-4z"/><path d="M10 31v2.343A6.01 6.01 0 0114 39a6.01 6.01 0 01-4 5.657V47h40v-2.343A6.01 6.01 0 0146 39a6.01 6.01 0 014-5.657V31H10m0-2h40a2 2 0 012 2v4a4 4 0 000 8v4a2 2 0 01-2 2H10a2 2 0 01-2-2v-4a4 4 0 000-8v-4a2 2 0 012-2z" fill="#0080ff"/></g><path class="d" d="M39 33h2v4h-2zm0 6h2v4h-2zm0 6h2v2h-2z"/><g class="e" transform="translate(18 33)"><circle class="g" cx="3.5" cy="3.5" r="3.5"/><circle class="a" cx="3.5" cy="3.5" r="2.5"/></g><g class="e" transform="translate(28 38)"><circle class="g" cx="3.5" cy="3.5" r="3.5"/><circle class="a" cx="3.5" cy="3.5" r="2.5"/></g><path stroke="#0080ff" stroke-width="2" stroke-linecap="round" stroke-linejoin="round" fill="none" d="M29 34l-5 10"/><path class="d" d="M12 27v-2h36v2h2v-2a2 2 0 00-2-2H12a2 2 0 00-2 2v2zm2-6v-2h32v2h2v-2a2 2 0 00-2-2H14a2 2 0 00-2 2v2zm2-6v-2h28v2h2v-2a2 2 0 00-2-2H16a2 2 0 00-2 2v2z"/></svg>