<svg xmlns="http://www.w3.org/2000/svg" width="60" height="60"><defs><style>.b{fill:#0080ff}.d{opacity:.15}</style></defs><path fill="none" d="M0 0h60v60H0z"/><path class="b" d="M14 21v3h-3v-3zm-3-9v3h3v-3zm0-6v3h3V6zm6 24h3v-3h-3zm-3-6v3h3v-3zm9-18h-6v3h-3v3h3v3h3v-3h3a6 6 0 010 12h-3v3h3v3a12 12 0 0012-12A12 12 0 0023 6zm-6 18h3v-6h-3v-3h-3v6h3z"/><path class="b" d="M15 52.667v-4c2.667 0 6.667-9.334 9.333-9.334S29.667 46 33.667 46s8-12 10.666-12v18.667z" opacity=".25"/><g class="d"><circle class="b" cx="3" cy="3" r="3" transform="translate(12 33)"/></g><path class="b" d="M15 34a2 2 0 11-2 2 2 2 0 012-2m0-2a4 4 0 104 4 4 4 0 00-4-4zm9 9a2 2 0 11-2 2 2 2 0 012-2m0-2a4 4 0 104 4 4 4 0 00-4-4z"/><g class="d"><circle class="b" cx="3" cy="3" r="3" transform="translate(31 30)"/></g><path class="b" d="M34 31a2 2 0 11-2 2 2 2 0 012-2m0-2a4 4 0 104 4 4 4 0 00-4-4z"/><g class="d"><circle class="b" cx="3" cy="3" r="3" transform="translate(41 17)"/></g><path class="b" d="M44 18a2 2 0 11-2 2 2 2 0 012-2m0-2a4 4 0 104 4 4 4 0 00-4-4zM15 53.333a1 1 0 01-1-1V48a1 1 0 012 0v4.333a1 1 0 01-1 1zm9 .328a1 1 0 01-1-1V51a1 1 0 012 0v1.661a1 1 0 01-1 1zM34 53a1 1 0 01-1-1v-7a1 1 0 012 0v7a1 1 0 01-1 1zm10 0a1 1 0 01-1-1V33a1 1 0 012 0v19a1 1 0 01-1 1z"/><rect class="b" width="38" height="2" rx="1" transform="translate(11 52)"/><path class="b" d="M21.57 39.843l-2.9-2.256a3.989 3.989 0 01-1.239 1.57l2.9 2.256a4 4 0 011.239-1.57zm8.996-4.823l-4.546 4.546a3.991 3.991 0 011.414 1.414l4.546-4.546a3.991 3.991 0 01-1.414-1.414zm10.29-12.574l-5.287 6.875a4 4 0 011.57 1.227l5.291-6.87a4 4 0 01-1.574-1.232z"/></svg>