<svg xmlns="http://www.w3.org/2000/svg" width="152.999" height="58"><defs><filter id="a" x="0" y="0" width="152.999" height="58" filterUnits="userSpaceOnUse"><feOffset dy="3"/><feGaussianBlur stdDeviation="3" result="b"/><feFlood flood-opacity=".349"/><feComposite operator="in" in2="b"/><feComposite in="SourceGraphic"/></filter></defs><g transform="translate(-.001)" filter="url(#a)"><rect width="134.999" height="40" rx="6" transform="translate(9 6)" fill="#fff"/></g><path d="M39.144 25.79a5.8 5.8 0 012.759-4.866 5.941 5.941 0 00-4.679-2.529c-1.968-.207-3.877 1.177-4.88 1.177-1.023 0-2.566-1.157-4.23-1.123a6.229 6.229 0 00-5.243 3.2c-2.267 3.924-.576 9.691 1.6 12.863 1.087 1.554 2.356 3.288 4.018 3.227 1.626-.066 2.233-1.035 4.2-1.035 1.944 0 2.514 1.035 4.209 1 1.745-.027 2.844-1.56 3.892-3.128a12.821 12.821 0 001.78-3.624 5.61 5.61 0 01-3.426-5.162zm-3.2-9.481a5.706 5.706 0 001.307-4.09 5.816 5.816 0 00-3.76 1.945 5.431 5.431 0 00-1.341 3.939 4.8 4.8 0 003.792-1.794zm26.749 21.204H60.42l-1.245-3.91h-4.326l-1.186 3.91h-2.212l4.289-13.312h2.647l4.306 13.312zm-3.892-5.551l-1.126-3.474q-.179-.533-.671-2.508h-.04q-.2.849-.632 2.508l-1.107 3.476zm14.9.633a5.435 5.435 0 01-1.331 3.87 3.9 3.9 0 01-2.96 1.264 2.963 2.963 0 01-2.741-1.361v5.036h-2.133V31.069q0-1.538-.079-3.155h1.876l.119 1.521h.04a3.8 3.8 0 016.074-.377 5.307 5.307 0 011.131 3.537zm-2.173.078a3.956 3.956 0 00-.632-2.312 2.186 2.186 0 00-1.857-.947 2.219 2.219 0 00-1.432.523 2.426 2.426 0 00-.839 1.373 2.785 2.785 0 00-.1.649v1.6a2.568 2.568 0 00.642 1.768 2.133 2.133 0 001.669.721 2.186 2.186 0 001.876-.928 4.085 4.085 0 00.668-2.447zm13.216-.078a5.435 5.435 0 01-1.331 3.87 3.9 3.9 0 01-2.961 1.264 2.963 2.963 0 01-2.741-1.361v5.036h-2.133V31.069q0-1.538-.079-3.155h1.876l.119 1.521h.04a3.8 3.8 0 016.075-.377 5.312 5.312 0 011.131 3.537zm-2.174.078a3.957 3.957 0 00-.633-2.312 2.182 2.182 0 00-1.855-.947 2.228 2.228 0 00-1.434.523 2.425 2.425 0 00-.838 1.373 2.848 2.848 0 00-.1.649v1.6a2.576 2.576 0 00.641 1.768 2.137 2.137 0 001.671.721 2.184 2.184 0 001.876-.928 4.085 4.085 0 00.667-2.447zm14.521 1.105a3.555 3.555 0 01-1.184 2.766 5.247 5.247 0 01-3.627 1.165 6.332 6.332 0 01-3.448-.829l.493-1.777a5.936 5.936 0 003.082.83 2.908 2.908 0 001.876-.543 1.774 1.774 0 00.673-1.45 1.859 1.859 0 00-.554-1.363 5.139 5.139 0 00-1.837-1.026q-3.5-1.3-3.5-3.813a3.366 3.366 0 011.235-2.686 4.883 4.883 0 013.27-1.047 6.463 6.463 0 013.023.632l-.535 1.738a5.286 5.286 0 00-2.558-.612 2.6 2.6 0 00-1.765.553 1.583 1.583 0 00-.535 1.206 1.63 1.63 0 00.613 1.3 6.91 6.91 0 001.935 1.026 6.56 6.56 0 012.528 1.618 3.373 3.373 0 01.813 2.309zm7.071-4.264h-2.351v4.66q0 1.778 1.245 1.776a3.748 3.748 0 00.947-.1l.059 1.619a4.834 4.834 0 01-1.659.236 2.557 2.557 0 01-1.976-.771 3.781 3.781 0 01-.711-2.588V29.51h-1.4v-1.6h1.4v-1.758l2.1-.632v2.39h2.351v1.6zm10.588 3.12a5.265 5.265 0 01-1.265 3.634 4.509 4.509 0 01-3.516 1.461 4.3 4.3 0 01-3.369-1.4 5.1 5.1 0 01-1.255-3.535 5.222 5.222 0 011.294-3.653 4.485 4.485 0 013.488-1.422 4.388 4.388 0 013.4 1.4 5.038 5.038 0 011.213 3.515zm-2.211.049a4.3 4.3 0 00-.571-2.265 2.112 2.112 0 00-1.917-1.143 2.142 2.142 0 00-1.956 1.143 4.368 4.368 0 00-.572 2.3 4.284 4.284 0 00.566 2.27 2.188 2.188 0 003.855-.019 4.314 4.314 0 00.59-2.281zm9.148-2.894a3.712 3.712 0 00-.672-.059 2.013 2.013 0 00-1.739.85 3.2 3.2 0 00-.532 1.9v5.036h-2.133v-6.579q0-1.511-.062-3.022h1.858l.078 1.837h.059a3.293 3.293 0 011.067-1.521 2.58 2.58 0 011.542-.514 3.425 3.425 0 01.533.039zm9.54 2.47a5 5 0 01-.078.967h-6.4a2.783 2.783 0 00.928 2.175 3.176 3.176 0 002.093.67 7.08 7.08 0 002.589-.453l.334 1.479a8.007 8.007 0 01-3.219.593 4.667 4.667 0 01-3.508-1.312 4.852 4.852 0 01-1.274-3.525 5.5 5.5 0 011.187-3.613 4.089 4.089 0 013.357-1.539 3.578 3.578 0 013.143 1.539 5.18 5.18 0 01.843 3.019zm-2.034-.553a2.886 2.886 0 00-.414-1.639 1.863 1.863 0 00-1.7-.89 2.022 2.022 0 00-1.7.869 3.185 3.185 0 00-.631 1.658h4.442zM54.235 19.495a13.624 13.624 0 01-1.534-.078v-6.436a11.615 11.615 0 011.806-.136c2.446 0 3.573 1.2 3.573 3.165 0 2.263-1.33 3.485-3.845 3.485zm.358-5.825a4.28 4.28 0 00-.844.068v4.892a5.537 5.537 0 00.708.029 2.318 2.318 0 002.515-2.621 2.135 2.135 0 00-2.377-2.367zm7 5.874a2.245 2.245 0 01-2.272-2.427 2.3 2.3 0 012.35-2.495 2.228 2.228 0 012.272 2.418 2.311 2.311 0 01-2.348 2.504zm.04-4.155c-.757 0-1.243.708-1.243 1.7 0 .971.5 1.679 1.233 1.679s1.233-.757 1.233-1.7c-.002-.961-.487-1.679-1.225-1.679zm10.172-.669l-1.477 4.716h-.962l-.611-2.049a15.532 15.532 0 01-.379-1.523h-.02a10.214 10.214 0 01-.378 1.523l-.65 2.049h-.972l-1.389-4.717h1.078l.534 2.243q.189.8.32 1.514h.02c.077-.4.2-.893.388-1.5l.67-2.252h.854l.641 2.2c.155.534.281 1.058.379 1.553h.028a13.573 13.573 0 01.32-1.553l.573-2.2zm5.433 4.717h-1.049v-2.709c0-.834-.32-1.252-.952-1.252a1.089 1.089 0 00-1.049 1.155v2.805h-1.049v-3.368c0-.417-.01-.864-.039-1.349h.922l.049.728h.029a1.7 1.7 0 011.5-.824c.991 0 1.641.757 1.641 1.99v2.823zm2.892 0h-1.05v-6.882h1.05zm3.823.107a2.246 2.246 0 01-2.272-2.427 2.3 2.3 0 012.349-2.495 2.227 2.227 0 012.272 2.418 2.311 2.311 0 01-2.351 2.504zm.039-4.155c-.757 0-1.243.708-1.243 1.7 0 .971.5 1.679 1.232 1.679s1.233-.757 1.233-1.7c-.001-.961-.485-1.679-1.219-1.679zm6.443 4.047l-.076-.543h-.028a1.611 1.611 0 01-1.38.65 1.372 1.372 0 01-1.446-1.388c0-1.164 1.01-1.766 2.757-1.766v-.087c0-.621-.329-.932-.98-.932a2.208 2.208 0 00-1.233.35l-.213-.689a3.017 3.017 0 011.62-.408c1.233 0 1.855.65 1.855 1.952v1.737a7.124 7.124 0 00.068 1.126h-.945zm-.144-2.35c-1.165 0-1.749.282-1.749.951a.668.668 0 00.719.737 1 1 0 001.03-.96zm6.113 2.35l-.049-.757h-.029a1.582 1.582 0 01-1.515.864 2.15 2.15 0 01-1.98-2.408 2.238 2.238 0 012.064-2.513 1.418 1.418 0 011.331.641h.021v-2.708h1.05v5.611c0 .456.011.883.039 1.271zm-.155-2.776a1.141 1.141 0 00-1.1-1.223c-.777 0-1.253.689-1.253 1.659 0 .951.493 1.6 1.232 1.6a1.177 1.177 0 001.126-1.252zm7.7 2.883a2.245 2.245 0 01-2.271-2.427 2.3 2.3 0 012.349-2.495 2.227 2.227 0 012.272 2.418 2.31 2.31 0 01-2.346 2.505zm.039-4.155c-.756 0-1.242.708-1.242 1.7 0 .971.5 1.679 1.232 1.679s1.233-.757 1.233-1.7c0-.96-.483-1.678-1.223-1.678zm7.95 4.048h-1.043v-2.708c0-.834-.32-1.252-.952-1.252a1.088 1.088 0 00-1.048 1.16v2.8h-1.05v-3.368c0-.417-.01-.864-.039-1.349h.922l.049.728h.029a1.694 1.694 0 011.495-.825c.991 0 1.642.757 1.642 1.99zm7.057-3.93h-1.154v2.291c0 .583.2.874.61.874a2.066 2.066 0 00.465-.049l.029.8a2.323 2.323 0 01-.813.117c-.826 0-1.321-.456-1.321-1.65v-2.383h-.688v-.786h.688v-.864l1.03-.311v1.174h1.154zm5.551 3.931h-1.048v-2.689c0-.844-.319-1.271-.952-1.271a1.028 1.028 0 00-1.05 1.116v2.843h-1.048v-6.881h1.047v2.834h.021a1.591 1.591 0 011.419-.767c1 0 1.609.776 1.609 2.01zm5.687-2.107h-3.147a1.354 1.354 0 001.487 1.4 3.544 3.544 0 001.272-.223l.163.728a3.94 3.94 0 01-1.583.291 2.19 2.19 0 01-2.349-2.378 2.3 2.3 0 012.231-2.534 1.981 1.981 0 011.962 2.243 2.021 2.021 0 01-.036.475zm-.962-.747c0-.728-.367-1.242-1.038-1.242a1.244 1.244 0 00-1.147 1.242h2.184z" fill="#1f333d"/></svg>