<svg xmlns="http://www.w3.org/2000/svg" width="60" height="60"><defs><style>.d,.e{fill:none;stroke-linejoin:round;stroke:#0080ff;stroke-width:2px}.e{fill:#fff}</style></defs><path fill="none" d="M0 0h60v60H0z"/><path d="M50 49.5l-20-1-20 1v-40l20 2 20-2v40z" opacity=".15" fill="#0080ff"/><g stroke-linejoin="round" stroke-linecap="round" fill="none"><path d="M50 49.5l-20-1-20 1v-40l20 2 20-2v40z"/><path d="M48 47.398V11.71l-17.801 1.78a2 2 0 01-.398 0L12 11.71v35.688l17.9-.896a2 2 0 01.2 0l17.9.896m2 2.102l-20-1-20 1v-40l20 2 20-2v40z" fill="#0080ff"/></g><path class="d" d="M30 13v34"/><path class="e" d="M15 17h5v5h-5zm6 10h5v5h-5zm-6 10h5v5h-5z"/><path class="d" d="M23 18h3m-3 4h3m-11 5h3m-3 4h3m5 6h3m-3 4h3"/><path class="e" d="M45 22h-5v-5h5zm-6 10h-5v-5h5zm6 10h-5v-5h5z"/><path class="d" d="M37 18h-3m3 4h-3m11 5h-3m3 4h-3m-5 6h-3m3 4h-3"/></svg>