<svg xmlns="http://www.w3.org/2000/svg" width="329.895" height="167.199" viewBox="0 0 329.895 167.199"><defs><style>.a{fill:none;stroke:#2b56f5;stroke-miterlimit:10;stroke-width:2px;}</style></defs><g transform="translate(-37.242 -144.052)"><circle class="a" cx="2.213" cy="2.213" r="2.213" transform="translate(196.629 224.635)"/><circle class="a" cx="6.375" cy="6.375" r="6.375" transform="translate(192.467 220.473)"/><circle class="a" cx="10.537" cy="10.537" r="10.537" transform="translate(188.305 216.311)"/><path class="a" d="M238.361,258.652a14.671,14.671,0,1,1,8.093,6.173" transform="translate(-51.929 -23.922)"/><path class="a" d="M233.181,259.1a18.863,18.863,0,1,1,16.109,9.046,18.987,18.987,0,0,1-2.446-.157" transform="translate(-50.448 -22.442)"/><path class="a" d="M226.719,257.058a23.027,23.027,0,1,1,21.09,13.773" transform="translate(-48.967 -20.961)"/><path class="a" d="M264.445,220.8a27.19,27.19,0,0,1-7.109,53.127" transform="translate(-57.509 -19.916)"/><path class="a" d="M219.605,251.346a27.207,27.207,0,0,1,30.452-31.95" transform="translate(-47.486 -19.48)"/><path class="a" d="M285.414,242.54a31.371,31.371,0,0,1-29.743,41.275q-.464,0-.923-.013" transform="translate(-56.83 -25.62)"/><path class="a" d="M292.826,234.77a31.123,31.123,0,0,1,1.475,2.891" transform="translate(-66.823 -23.581)"/><path class="a" d="M278.509,219.943a31.514,31.514,0,0,1,9.657,9.468" transform="translate(-63.065 -19.69)"/><path class="a" d="M213.5,244.858a31.348,31.348,0,0,1,29.957-31.317" transform="translate(-46.005 -18.01)"/><path class="a" d="M284.976,282.683a35.476,35.476,0,0,1-29.561,15.828q-.826,0-1.643-.038" transform="translate(-56.574 -36.154)"/><path class="a" d="M303.374,254.994c0,.246.007.494.007.742a35.439,35.439,0,0,1-2.14,12.168" transform="translate(-69.031 -28.888)"/><path class="a" d="M286,218.348a35.45,35.45,0,0,1,13.311,25.558" transform="translate(-65.032 -19.271)"/><path class="a" d="M265.22,208.739a35.325,35.325,0,0,1,13.028,5.4" transform="translate(-59.578 -16.75)"/><path class="a" d="M256,207.857a35.772,35.772,0,0,1,5.58.436" transform="translate(-57.158 -16.518)"/><path class="a" d="M249.821,208.166q1.288-.165,2.6-.237" transform="translate(-55.537 -16.537)"/><path class="a" d="M222.353,218.675a35.494,35.494,0,0,1,13.089-8.13" transform="translate(-48.329 -17.223)"/><path class="a" d="M215,230.149q.532-.863,1.112-1.693" transform="translate(-46.4 -21.924)"/><path class="a" d="M211.794,235.663a35.6,35.6,0,0,1,1.739-3.481" transform="translate(-45.558 -22.902)"/><path class="a" d="M287.01,290.067A39.591,39.591,0,0,1,257.18,304.6" transform="translate(-57.468 -38.092)"/><path class="a" d="M309.568,255.253q0,.275,0,.551a39.983,39.983,0,0,1-.6,6.919" transform="translate(-71.059 -28.956)"/><path class="a" d="M225.349,209.282a39.677,39.677,0,0,1,62.142,29.291" transform="translate(-49.115 -15.037)"/><path class="a" d="M227.424,203.476q1.089-.6,2.216-1.137" transform="translate(-49.659 -15.07)"/><path class="a" d="M287.205,298.5a43.68,43.68,0,0,1-29.044,12.458" transform="translate(-57.726 -40.305)"/><path class="a" d="M309.259,229.6a43.546,43.546,0,0,1,4.267,14.454" transform="translate(-71.135 -22.225)"/><path class="a" d="M284.685,203.94a44.039,44.039,0,0,1,16.657,16.216" transform="translate(-64.686 -15.49)"/><path class="a" d="M236.688,198.938a44.016,44.016,0,0,1,30.419.715" transform="translate(-52.091 -13.556)"/><path class="a" d="M233.51,193.873a48.14,48.14,0,0,1,38.515,2.346" transform="translate(-51.257 -12.076)"/><path class="a" d="M281.858,311.487a47.72,47.72,0,0,1-22.911,7.021" transform="translate(-57.932 -43.713)"/><path class="a" d="M303.542,299.779q-.822.9-1.689,1.764" transform="translate(-69.191 -40.641)"/><path class="a" d="M288.006,199.331A48.036,48.036,0,0,1,311.791,233.5" transform="translate(-65.558 -14.281)"/><path class="a" d="M232.421,188.577a51.843,51.843,0,0,1,7.666-2.064" transform="translate(-50.971 -10.917)"/><path class="a" d="M279.829,319.752a51.868,51.868,0,0,1-19.13,5.022" transform="translate(-58.392 -45.882)"/><path class="a" d="M309.346,298.074a52.471,52.471,0,0,1-9.822,10.077" transform="translate(-68.58 -40.193)"/><path class="a" d="M311.425,212.08a51.955,51.955,0,0,1,9.887,20.379" transform="translate(-71.703 -17.626)"/><path class="a" d="M244.927,185.922a52.249,52.249,0,0,1,47.45,17.21" transform="translate(-54.253 -10.595)"/><path class="a" d="M226.24,184.6a55.915,55.915,0,0,1,9.113-2.969" transform="translate(-49.349 -9.637)"/><path class="a" d="M186.919,288.228a56.05,56.05,0,0,1-3.107-7.278" transform="translate(-38.215 -35.699)"/><path class="a" d="M276.792,327.927a56.01,56.01,0,0,1-13.771,3.033" transform="translate(-59.001 -48.027)"/><path class="a" d="M306.8,310.947a56.719,56.719,0,0,1-6.24,5.211" transform="translate(-68.853 -43.571)"/><path class="a" d="M307.176,199.33A56.347,56.347,0,0,1,323.1,224" transform="translate(-70.588 -14.28)"/><path class="a" d="M266.691,180.385a56.088,56.088,0,0,1,28.619,12.884" transform="translate(-59.964 -9.309)"/><path class="a" d="M250.533,179.785q2-.142,4.032-.142,2.5,0,4.941.214" transform="translate(-55.724 -9.114)"/><path class="a" d="M230.429,177.567q2.456-.805,5-1.4" transform="translate(-50.448 -8.201)"/><path class="a" d="M182.4,291.2a60.115,60.115,0,0,1-5.384-13.079" transform="translate(-36.432 -34.957)"/><path class="a" d="M267.567,174.81a60.417,60.417,0,0,1,50.936,48.8" transform="translate(-60.194 -7.846)"/><path class="a" d="M247.357,174.332a61.342,61.342,0,0,1,13.175.046" transform="translate(-54.89 -7.633)"/><path class="a" d="M179.9,296.9a64.284,64.284,0,0,1-9.7-22.908" transform="translate(-34.644 -33.872)"/><path class="a" d="M256,168.357a64.562,64.562,0,0,1,64.606,62.431" transform="translate(-57.158 -6.152)"/><path class="a" d="M214.814,171.41q2.705-1.333,5.538-2.431" transform="translate(-46.35 -6.316)"/><path class="a" d="M176.349,301.008a68.463,68.463,0,0,1-12.113-28.137" transform="translate(-33.077 -33.579)"/><path class="a" d="M256,162.714a68.806,68.806,0,0,1,68.805,68.805q0,1.6-.072,3.184" transform="translate(-57.158 -4.671)"/><path class="a" d="M223.974,168.148q.831-.3,1.671-.586" transform="translate(-48.754 -5.944)"/><path class="a" d="M171.126,301.08A72.574,72.574,0,0,1,157.4,264.153" transform="translate(-31.284 -31.292)"/><path class="a" d="M354.895,258.6" transform="translate(-83.111 -29.835)"/><path class="a" d="M291.218,163.524a73.014,73.014,0,0,1,46.855,63.709" transform="translate(-66.401 -4.884)"/><path class="a" d="M168.983,196.565q1.365-2.043,2.855-3.992" transform="translate(-34.323 -12.507)"/><path class="a" d="M166.693,303.512a76.738,76.738,0,0,1-15.111-41.807" transform="translate(-29.757 -30.649)"/><path class="a" d="M302.618,162.369a77.164,77.164,0,0,1,42.461,62.394" transform="translate(-69.392 -4.581)"/><path class="a" d="M294.908,158.907q2.254.9,4.436,1.944" transform="translate(-67.369 -3.672)"/><path class="a" d="M252.374,151.474q1.331-.045,2.674-.045a77.98,77.98,0,0,1,8.166.427" transform="translate(-56.207 -1.71)"/><path class="a" d="M186.538,172.03a77,77,0,0,1,29.283-16.306" transform="translate(-38.93 -2.837)"/><path class="a" d="M160.665,196.483a81.524,81.524,0,0,1,8.3-11.74" transform="translate(-32.14 -10.452)"/><path class="a" d="M163.123,306.188A80.945,80.945,0,0,1,145.786,256" transform="translate(-28.236 -29.152)"/><path class="a" d="M311.177,160.571a81.342,81.342,0,0,1,39.739,58.555" transform="translate(-71.638 -4.109)"/><path class="a" d="M296.356,153.408q2.43.957,4.781,2.062" transform="translate(-67.749 -2.229)"/><path class="a" d="M182.137,167.656a81.114,81.114,0,0,1,34.128-18.388" transform="translate(-37.775 -1.143)"/><path class="a" d="M152.8,197.7a85.586,85.586,0,0,1,10.356-15.691" transform="translate(-30.078 -9.734)"/><path class="a" d="M140.471,245.629q.168-2.237.45-4.441" transform="translate(-26.841 -25.265)"/><path class="a" d="M159.656,310.356A85.1,85.1,0,0,1,140.143,256" transform="translate(-26.755 -29.152)"/><path class="a" d="M313.215,155.233a85.491,85.491,0,0,1,42.634,63.985" transform="translate(-72.173 -2.708)"/><path class="a" d="M305.413,151.178q1.667.788,3.3,1.645" transform="translate(-70.126 -1.644)"/><path class="a" d="M292.2,145.91q2.518.828,4.965,1.8" transform="translate(-66.658 -0.262)"/><path class="a" d="M180.732,161.96a85.286,85.286,0,0,1,30.445-16.751" transform="translate(-37.406 -0.078)"/><path class="a" d="M172.309,167.444q.711-.676,1.438-1.337" transform="translate(-35.196 -5.562)"/><path class="a" d="M144.495,198.684a89.72,89.72,0,0,1,16.491-25.238" transform="translate(-27.897 -7.488)"/><path class="a" d="M134.877,244.87q.165-2.1.426-4.167" transform="translate(-25.373 -25.138)"/><path class="a" d="M155.31,312.5a89.253,89.253,0,0,1-20.81-57.421q0-1.3.037-2.589" transform="translate(-25.274 -28.231)"/><path class="a" d="M323.084,154.682a89.555,89.555,0,0,1,39.974,69.289" transform="translate(-74.763 -2.564)"/><path class="a" d="M182.409,155.553a89.561,89.561,0,0,1,17.808-10.569" transform="translate(-37.846 -0.019)"/><path class="a" d="M161.057,169.174q2.96-3.319,6.221-6.35" transform="translate(-32.243 -4.7)"/><path class="a" d="M137.473,200.216A93.74,93.74,0,0,1,153.855,173" transform="translate(-26.054 -7.37)"/><path class="a" d="M129.52,242q.135-1.322.307-2.633" transform="translate(-23.967 -24.787)"/><path class="a" d="M151.54,317.155A93.407,93.407,0,0,1,128.857,256" transform="translate(-23.793 -29.152)"/><path class="a" d="M382.17,270q-.245,2.233-.592,4.432" transform="translate(-90.113 -32.826)"/><path class="a" d="M382.884,262.2q-.105,2.189-.309,4.353" transform="translate(-90.375 -30.778)"/><path class="a" d="M326.576,150.228a93.689,93.689,0,0,1,41.717,77.031" transform="translate(-75.679 -1.395)"/><path class="a" d="M181.158,151.041a93.937,93.937,0,0,1,9.5-6.09" transform="translate(-37.518 -0.01)"/><path class="a" d="M151.331,336.261a98.124,98.124,0,0,1-14.4-21.426" transform="translate(-25.911 -44.592)"/><path class="a" d="M387.745,266.685a97.838,97.838,0,0,1-1.733,12.128" transform="translate(-91.277 -31.956)"/><path class="a" d="M334.606,148.97a97.8,97.8,0,0,1,39.962,78.943q0,2.108-.089,4.193" transform="translate(-77.787 -1.065)"/><path class="a" d="M173.445,150.133q3.483-2.768,7.216-5.22" transform="translate(-35.494)"/><path class="a" d="M156.052,165.557a98.677,98.677,0,0,1,8.388-8.486" transform="translate(-30.93 -3.191)"/><path class="a" d="M128.533,205.965a97.726,97.726,0,0,1,19.232-35.71" transform="translate(-23.708 -6.65)"/><path class="a" d="M123.947,240.634q.2-1.88.465-3.738" transform="translate(-22.505 -24.139)"/><path class="a" d="M129.5,291.26a97.634,97.634,0,0,1-6.257-32.632" transform="translate(-22.319 -29.842)"/><path class="a" d="M149.981,344.18a102.491,102.491,0,0,1-12.3-16.288" transform="translate(-26.108 -48.018)"/><path class="a" d="M391.922,280.506q-.428,2.394-.966,4.75" transform="translate(-92.574 -35.583)"/><path class="a" d="M392.85,276.238q-.145.989-.309,1.973" transform="translate(-92.99 -34.463)"/><path class="a" d="M394.138,246.963q.214,3.306.215,6.665c0,.395,0,.788-.007,1.182" transform="translate(-93.409 -26.78)"/><path class="a" d="M393.6,240.809q.108.992.2,1.991" transform="translate(-93.269 -25.165)"/><path class="a" d="M347.693,152.293a101.9,101.9,0,0,1,33.74,64.21" transform="translate(-81.221 -1.937)"/><path class="a" d="M152.944,159.559a102.693,102.693,0,0,1,11.892-11.292" transform="translate(-30.114 -0.88)"/><path class="a" d="M145.525,170.6q2.155-2.85,4.5-5.54" transform="translate(-28.167 -5.288)"/><path class="a" d="M119.645,219.226A101.445,101.445,0,0,1,133.3,183.331" transform="translate(-21.376 -10.082)"/><path class="a" d="M118.643,237.867q.145-1.159.316-2.312" transform="translate(-21.113 -23.787)"/><path class="a" d="M117.695,261.072q-.108-2.227-.122-4.478c0-.2,0-.4,0-.594" transform="translate(-20.831 -29.152)"/><path class="a" d="M121.061,286.205a101.661,101.661,0,0,1-2.249-11.59" transform="translate(-21.157 -34.037)"/><path class="a" d="M122.9,294.12q-.354-1.209-.679-2.431" transform="translate(-22.05 -38.518)"/><path class="a" d="M111.946,255.407q-.018-.967-.017-1.938,0-3.587.234-7.115" transform="translate(-19.351 -26.62)"/><path class="a" d="M149.613,352.281A106.818,106.818,0,0,1,135.765,335.4" transform="translate(-25.606 -49.989)"/><path class="a" d="M162.552,365.648q-.934-.787-1.848-1.594" transform="translate(-32.15 -57.508)"/><path class="a" d="M397.084,284.541q-.216,1.07-.451,2.132" transform="translate(-94.064 -36.642)"/><path class="a" d="M399,271.093q-.318,3.057-.807,6.06" transform="translate(-94.474 -33.113)"/><path class="a" d="M359.342,155.615a105.92,105.92,0,0,1,29.363,61.97" transform="translate(-84.278 -2.808)"/><path class="a" d="M152.193,153.971q2.994-3.11,6.233-5.972" transform="translate(-29.917 -0.81)"/><path class="a" d="M149.585,158.475q.521-.571,1.05-1.134" transform="translate(-29.233 -3.261)"/><path class="a" d="M137.09,171.222a106.887,106.887,0,0,1,7.4-9.581" transform="translate(-25.954 -4.39)"/><path class="a" d="M114.919,214.6a105.606,105.606,0,0,1,13.438-33.882" transform="translate(-20.135 -9.396)"/><path class="a" d="M106.3,250.068a111.531,111.531,0,0,1,.753-11.733" transform="translate(-17.872 -24.516)"/><path class="a" d="M153.174,364.126a111.1,111.1,0,0,1-14.28-14.84" transform="translate(-26.427 -53.633)"/><path class="a" d="M402.832,283.371q-.482,2.608-1.085,5.173" transform="translate(-95.406 -36.335)"/><path class="a" d="M404.932,265.348a110.7,110.7,0,0,1-1.39,11.953" transform="translate(-95.877 -31.605)"/><path class="a" d="M366.22,154.678a110.027,110.027,0,0,1,28.358,61.607" transform="translate(-86.083 -2.563)"/><path class="a" d="M140.536,157.813q3.494-4.229,7.389-8.093" transform="translate(-26.858 -1.261)"/><path class="a" d="M109.276,209.356a109.984,109.984,0,0,1,22.062-47.009" transform="translate(-18.654 -4.575)"/><path class="a" d="M100.758,247.342q.142-3.722.519-7.382" transform="translate(-16.419 -24.943)"/><path class="a" d="M407.916,287.842q-.235,1.127-.492,2.248" transform="translate(-96.896 -37.508)"/><path class="a" d="M410.671,262.193a114.982,114.982,0,0,1-1.587,15.072" transform="translate(-97.331 -30.777)"/><path class="a" d="M411.34,257.4q-.008.892-.029,1.78" transform="translate(-97.916 -29.519)"/><path class="a" d="M376.391,157.8a114.078,114.078,0,0,1,24.583,55.74" transform="translate(-88.752 -3.382)"/><path class="a" d="M102.926,209.153a114.2,114.2,0,0,1,27.45-56.659" transform="translate(-16.988 -1.989)"/><path class="a" d="M95.167,224.619a118.183,118.183,0,0,1,24.849-67.4" transform="translate(-14.952 -3.229)"/><path class="a" d="M406.639,307.067a118.119,118.119,0,0,1-5.884,14.378" transform="translate(-95.146 -42.553)"/><path class="a" d="M413.675,287.641q-.288,1.442-.609,2.87" transform="translate(-98.377 -37.455)"/><path class="a" d="M415.63,272.959q-.5,4.768-1.37,9.42" transform="translate(-98.69 -33.602)"/><path class="a" d="M416.808,263.217q-.04.911-.094,1.818" transform="translate(-99.334 -31.046)"/><path class="a" d="M416.4,241.984q.441,5.11.444,10.338,0,.67-.007,1.339" transform="translate(-99.251 -25.474)"/><path class="a" d="M383.577,157.777a118.291,118.291,0,0,1,21.257,44.139" transform="translate(-90.638 -3.376)"/><path class="a" d="M378.667,151.718q1.09,1.281,2.144,2.593" transform="translate(-89.349 -1.786)"/><path class="a" d="M130.007,154.855q1.02-1.28,2.074-2.531" transform="translate(-24.095 -1.945)"/><path class="a" d="M89.567,223.411a122.305,122.305,0,0,1,24.691-67.887" transform="translate(-13.482 -2.785)"/><path class="a" d="M412.829,301.483a122.087,122.087,0,0,1-9.925,24.529" transform="translate(-95.71 -41.088)"/><path class="a" d="M418.581,292.022q-.215.976-.445,1.944" transform="translate(-99.707 -38.605)"/><path class="a" d="M419.394,288.371q-.146.743-.3,1.484" transform="translate(-99.958 -37.647)"/><path class="a" d="M420.5,281.936q-.176,1.121-.371,2.235" transform="translate(-100.231 -35.958)"/><path class="a" d="M421.824,272q-.081.84-.172,1.677" transform="translate(-100.63 -33.351)"/><path class="a" d="M422.558,256q0,3.884-.238,7.711" transform="translate(-100.805 -29.152)"/><path class="a" d="M418.261,217.874q.6,2.568,1.094,5.176" transform="translate(-99.74 -19.147)"/><path class="a" d="M388.315,154.682a122.563,122.563,0,0,1,19.781,38.14" transform="translate(-91.881 -2.564)"/><path class="a" d="M123.992,153.2q1.188-1.541,2.425-3.042" transform="translate(-22.516 -1.376)"/><path class="a" d="M84.446,219.586a126.319,126.319,0,0,1,19.942-57.416" transform="translate(-12.138 -4.529)"/><path class="a" d="M420.175,297.091a126.118,126.118,0,0,1-8.939,24.875" transform="translate(-97.896 -39.935)"/><path class="a" d="M425.3,287.436q-.172.934-.358,1.862" transform="translate(-101.492 -37.402)"/><path class="a" d="M426.684,278.913q-.122.915-.256,1.827" transform="translate(-101.883 -35.165)"/><path class="a" d="M427.416,271.68q-.2,2.185-.468,4.348" transform="translate(-102.019 -33.267)"/><path class="a" d="M423.132,214.009q.612,2.441,1.128,4.918" transform="translate(-101.018 -18.133)"/><path class="a" d="M413.151,185.286q2.082,4.619,3.8,9.428" transform="translate(-98.399 -10.595)"/><path class="a" d="M396.76,156.633A127.007,127.007,0,0,1,407,173.844" transform="translate(-94.097 -3.076)"/><path class="a" d="M393.372,152.007q.742.979,1.466,1.973" transform="translate(-93.208 -1.862)"/><path class="a" d="M112.294,159.4q1.447-2.184,2.982-4.3" transform="translate(-19.446 -2.673)"/><path class="a" d="M78.9,237.29q.19-1.975.439-3.931" transform="translate(-10.684 -23.21)"/><path class="a" d="M427,293.167a130.27,130.27,0,0,1-8.558,26.223" transform="translate(-99.786 -38.906)"/><path class="a" d="M431.619,284.179q-.124.776-.256,1.548" transform="translate(-103.178 -36.547)"/><path class="a" d="M432.681,275.2q-.269,2.5-.629,4.968" transform="translate(-103.359 -34.191)"/><path class="a" d="M424.911,199.921a130.224,130.224,0,0,1,3.886,14.437" transform="translate(-101.485 -14.435)"/><path class="a" d="M423.489,195.808q.332.92.649,1.848" transform="translate(-101.112 -13.356)"/><path class="a" d="M422.059,191.968q.31.8.61,1.613" transform="translate(-100.736 -12.348)"/><path class="a" d="M405.511,159.5a130.908,130.908,0,0,1,8.474,15.237" transform="translate(-96.394 -3.827)"/><path class="a" d="M79.931,211.825a130.427,130.427,0,0,1,19.24-51.592" transform="translate(-10.954 -4.02)"/><path class="a" d="M74.131,212.46a134.531,134.531,0,0,1,18.425-51.823" transform="translate(-9.432 -4.126)"/><path class="a" d="M432.866,292.282a134.4,134.4,0,0,1-8.771,27.738" transform="translate(-101.271 -38.673)"/><path class="a" d="M438.212,276.238q-.305,2.779-.721,5.523" transform="translate(-104.786 -34.463)"/><path class="a" d="M431.006,200.416q.646,2.039,1.23,4.1" transform="translate(-103.084 -14.565)"/><path class="a" d="M413.637,161.875a135.087,135.087,0,0,1,6.822,12.944" transform="translate(-98.526 -4.451)"/><path class="a" d="M68.965,226.391q.173-1.128.362-2.25" transform="translate(-8.076 -20.791)"/><path class="a" d="M436.5,302.08A138.59,138.59,0,0,1,427.9,326.5" transform="translate(-102.268 -41.244)"/><path class="a" d="M443.441,277.873q-.566,4.922-1.471,9.737" transform="translate(-105.962 -34.892)"/><path class="a" d="M428.286,177.66q1.668,3.664,3.13,7.44" transform="translate(-102.371 -8.594)"/><path class="a" d="M419.987,161.542q3.077,5.33,5.689,10.949" transform="translate(-100.193 -4.364)"/><path class="a" d="M70.433,203.427A138.64,138.64,0,0,1,86.972,160.1" transform="translate(-8.461 -3.984)"/><path class="a" d="M66.517,209.53q.281-1.169.58-2.331" transform="translate(-7.433 -16.345)"/><path class="a" d="M443.328,292.282a142.694,142.694,0,0,1-11.686,35.549" transform="translate(-103.251 -38.673)"/><path class="a" d="M449.062,279.345q-.471,3.949-1.154,7.83" transform="translate(-107.52 -35.278)"/><path class="a" d="M425.951,160.61A142.907,142.907,0,0,1,436,182.65" transform="translate(-101.758 -4.119)"/><path class="a" d="M75.8,175.939A143.183,143.183,0,0,1,83.74,159.7" transform="translate(-9.87 -3.88)"/><path class="a" d="M430.911,157.915q.433.77.856,1.544" transform="translate(-103.059 -3.412)"/><path class="a" d="M70.966,173.291A147.168,147.168,0,0,1,78.3,158.242" transform="translate(-8.601 -3.498)"/><path class="a" d="M436.307,341.578q-1.428,3.024-2.989,5.971" transform="translate(-103.691 -51.61)"/><path class="a" d="M447.9,301.483a146.833,146.833,0,0,1-9.617,28.136" transform="translate(-104.993 -41.088)"/><path class="a" d="M454.5,281.038q-.521,4.184-1.273,8.293" transform="translate(-108.915 -35.723)"/><path class="a" d="M433.235,162.17q2.785,5.249,5.153,10.741" transform="translate(-103.669 -4.529)"/><path class="a" d="M64.881,173.626A151.47,151.47,0,0,1,71.4,159.65" transform="translate(-7.004 -3.867)"/><path class="a" d="M452.124,311.173a150.868,150.868,0,0,1-7.174,20.193" transform="translate(-106.744 -43.631)"/><path class="a" d="M459.145,289.927q-.289,1.744-.617,3.473" transform="translate(-110.307 -38.055)"/><path class="a" d="M460.328,282.627q-.148,1.147-.313,2.289" transform="translate(-110.697 -36.14)"/><path class="a" d="M439.7,162.369q2.12,4.149,3.988,8.442" transform="translate(-105.366 -4.581)"/><path class="a" d="M57.352,176.827a155.15,155.15,0,0,1,6.813-15.676" transform="translate(-5.028 -4.261)"/><path class="a" d="M454.706,328.72q-.366,1-.746,2" transform="translate(-109.108 -48.236)"/><path class="a" d="M458.133,316.621q-1.1,3.705-2.386,7.331" transform="translate(-109.577 -45.06)"/><path class="a" d="M446.731,163.829q.741,1.532,1.451,3.084" transform="translate(-107.211 -4.964)"/><path class="a" d="M50.568,179.482q2.556-7.354,5.792-14.37" transform="translate(-3.248 -5.301)"/><path class="a" d="M471.147,286.278q-.247,1.775-.533,3.537" transform="translate(-113.479 -37.098)"/><path class="a" d="M453.336,164.586q.492,1.063.971,2.134" transform="translate(-108.944 -5.163)"/><path class="a" d="M44.634,183.5q.475-1.405.974-2.8" transform="translate(-1.691 -9.393)"/><path class="a" d="M459.445,345.643q-1.193,2.716-2.48,5.381" transform="translate(-109.897 -52.677)"/><path class="a" d="M476.567,289.084q-.093.623-.19,1.244" transform="translate(-114.991 -37.834)"/><path class="a" d="M50.937,167.261q.477-1.111.969-2.212" transform="translate(-3.345 -5.284)"/><path class="a" d="M46.69,176.718q1.031-2.792,2.161-5.536" transform="translate(-2.23 -6.894)"/><path class="a" d="M38.191,185.04q.443-1.376.907-2.743" transform="translate(0 -9.81)"/><path class="a" d="M467.036,342.306q-1.125,2.76-2.345,5.471" transform="translate(-111.924 -51.801)"/><path class="a" d="M474.926,337.387q-1.219,3.293-2.567,6.52" transform="translate(-113.936 -50.51)"/><path class="a" d="M477.961,330.422q-.458,1.366-.937,2.723" transform="translate(-115.161 -48.682)"/><path class="a" d="M482.066,334.432q-1.1,3.189-2.322,6.322" transform="translate(-115.874 -49.734)"/></g></svg>