<svg xmlns="http://www.w3.org/2000/svg" width="60" height="60"><defs><style>.a,.c{fill:none}.b{fill:#0080ff;opacity:.15}.c{stroke:#0080ff;stroke-linecap:round;stroke-linejoin:round;stroke-width:2px}.e{stroke:none}</style></defs><path class="a" d="M0 0h60v60H0z"/><rect class="b" width="12" height="12" rx="2" transform="translate(10 24)"/><rect class="b" width="12" height="12" rx="2" transform="translate(10 40)"/><rect class="b" width="12" height="12" rx="2" transform="translate(10 8)"/><path class="c" d="M14 13l2 2 6-6"/><path d="M20 15v3h-8v-8h4V8h-4a2 2 0 00-2 2v8a2 2 0 002 2h8a2 2 0 002-2v-3z" fill="#0080ff"/><g class="c" transform="translate(10 24)"><rect class="e" width="12" height="12" rx="2"/><rect class="a" x="1" y="1" width="10" height="10" rx="1"/></g><g class="c" transform="translate(10 40)"><rect class="e" width="12" height="12" rx="2"/><rect class="a" x="1" y="1" width="10" height="10" rx="1"/></g><g class="c" transform="translate(26 11)"><rect class="e" width="24" height="6" rx="3"/><rect class="a" x="1" y="1" width="22" height="4" rx="2"/></g><g class="c" transform="translate(26 27)"><rect class="e" width="24" height="6" rx="3"/><rect class="a" x="1" y="1" width="22" height="4" rx="2"/></g><g class="c" transform="translate(26 43)"><rect class="e" width="24" height="6" rx="3"/><rect class="a" x="1" y="1" width="22" height="4" rx="2"/></g></svg>