<svg xmlns="http://www.w3.org/2000/svg" width="94" height="94"><path fill="#fff" d="M0 0h94v94H0z"/><path d="M33.656 6.966V4H30.69v5.931h2.966zm23.724 0V4h-2.966v5.931h2.966zM30.69 9.931h-2.966v5.931h2.966V9.931zm32.621 0V6.966h2.966V4h-5.932v8.9h2.966zm-8.897 2.966h2.966v2.966h-2.966zm-20.758 2.965H30.69v5.931h2.966v-5.931z"/><path d="M60.345 18.828h2.966v-2.966h-5.932v2.966zm-23.724 0h2.966v2.966h-2.966zm5.931 0h2.966v2.966h-2.966z"/><path d="M48.483 21.793h2.966v2.966h2.966v-5.931h-2.966v-2.966h-2.966V9.931h-5.931V12.9h-2.965V9.931h2.966V6.966h8.9V4H36.621v11.862h8.9v2.966h2.966zm-20.759 0h2.966v2.966h-2.966zm5.931 0h2.966v2.966h-2.966zm5.931 0h2.966v2.966h-2.966z"/><path d="M45.517 21.793h2.966v2.966h-2.966zm17.793 0h2.966v2.966H63.31zm-26.689 2.966h2.966v2.966h-2.966zm20.759 2.965h2.966v-5.931H57.38v2.966h-2.966v2.966z"/><path d="M45.518 27.724h-5.931v2.966h-5.931v-2.966H30.69v2.966h-2.962v-2.966h-5.934v2.966h2.966v2.966h-5.932v5.931h2.966v-2.963h2.966v2.966h2.968v-2.966h2.966v-2.969h11.858V30.69h5.931v-2.966zM15.863 30.69h2.966v-2.966h-5.932v5.931h2.966zm41.52 0h-2.966v-2.966h-2.966v2.966h-2.968v2.966h11.862V30.69zm20.755 2.965h2.969V30.69h2.966v-2.966h-5.931v2.966h-5.935v2.966h5.931z"/><path d="M84.069 30.69h2.966v2.966h-2.966zm-2.966 2.965h2.966v2.966h-2.966zm-5.93 2.966h-2.966v2.966h5.931v2.966h2.969v-5.932h-5.931zm11.861 0H90v2.966h-2.966zm-65.241 2.965h2.966v2.966h-2.966z"/><path d="M72.207 39.586h-5.931v-2.965h5.931v-2.966H60.345v5.931h2.966v2.969h5.934v2.966h2.966v-5.935zm11.862 0h2.966v2.966h-2.966zm-59.31 2.966v2.966h-2.966v2.968h2.966v2.966h5.934v2.966h2.966v-8.9h-2.966v-2.966h2.966v-2.966h-5.935v2.966zm50.413 0h2.966v2.966h-2.966zm5.931 0h2.966v2.966h-2.966zM6.966 45.517H4v5.931h2.966v-5.931zm8.896.001V39.59H12.9v-5.934H9.931V30.69H4v5.931h5.931v5.931H12.9v5.931h5.931v-2.965zm47.449-.001h-2.966v8.9h5.931v-2.966H63.31v-2.966h2.966v-2.968z"/><path d="M72.207 45.517h2.966v2.966h-2.966z"/><path d="M78.138 48.483h-2.966v2.966h2.966v2.968h-2.966v2.966h5.931v-5.931h2.969v-2.966h-2.965v-2.969h-2.966zm8.896 0v5.931H90V42.552h-2.966v5.931zm-65.241 0h-2.965v5.931h-2.966v2.969h5.931v-2.966h2.969v-2.966h-2.969zm44.483 0h2.966v2.966h-2.966z"/><path d="M72.207 51.448h2.966v2.966h-2.966zM27.724 57.38v2.966h2.966v-5.932h-2.966zm-5.931-.001h2.966v2.966h-2.966zm38.552 0h2.966v2.966h-2.966zm26.689 0H90v2.966h-2.966z"/><path d="M15.862 60.345v2.966h2.966v2.966h8.9v5.931h2.966v-8.9h-8.9v-2.963h-5.932zm65.242 2.965v2.969h-2.966v-2.965h-2.966v-5.935h-2.965v2.966h-5.931v2.966H63.31v5.931h-2.966v5.931h-2.966v-5.931h-2.966v2.965h-2.96v-2.965h2.966v-5.931h2.966v-2.966H45.518v2.966h-2.966v2.968h2.966v11.862h-2.966v8.9h5.931v-8.9h2.969v8.9h2.966v-8.9h2.966v2.965h2.966v-2.965h11.862v5.931h2.965v2.966h-2.965v2.965h5.931v-5.934h2.966v-2.966h-5.931v-2.965h2.966v-2.966h2.966v-2.966h-2.966v-2.965h2.966v2.965h2.965v-8.9h2.966V60.34h-2.966v-2.961H81.11v5.931zm-32.621 0h2.969v2.969h-2.966zm26.69 8.9v2.966h-8.9v-8.9h8.9v5.931zm-65.242-8.9v-2.962H12.9v-2.965H9.931v-2.966h5.931v-2.969h-8.9v2.966H4v11.862h11.862V63.31H9.931z"/><path d="M87.034 63.31H90v2.966h-2.966zm-50.413 2.966V63.31h2.966v-2.965h-5.932v11.862h5.931v-2.962h2.969v-2.966h-5.934zm32.62 2.965h2.966v2.966h-2.966zm-35.586 8.897v-2.966h-5.931v5.931h2.966v-2.966zm5.932-2.966h-2.966v2.966h5.931v-2.966zm44.482 2.966h-2.966v2.969h2.966v2.966h2.966v2.966h2.968v-5.932h-2.966v-2.966h2.966v-5.934h-5.931v5.931zm-50.414 0h2.966v2.966h-2.966z"/><path d="M30.69 81.103h2.966v2.966H30.69zm32.62 0v2.966h2.966v2.966h2.966v-5.932H63.31zm-5.931 5.932v2.966h2.966v-5.932h-2.966zm23.724-2.966h2.966v2.966h-2.966zM33.655 90h2.966v-5.931h-2.966V90zm5.931-2.966h2.966V90h-2.966zm8.897 0h2.966V90h-2.966z"/><path d="M63.31 87.034h2.966V90H63.31zM21.645 24.759h3.114V4H4v20.759h17.645zM7.114 7.114h14.531v14.531H7.114zM86.886 4H69.241v20.759H90V4zm0 17.645H72.355V7.114h14.531zM7.114 69.241H4V90h20.759V69.241H7.114zm14.531 17.645H7.114V72.355h14.531z"/><path d="M9.931 9.931h8.897v8.897H9.931zm65.241 0h8.897v8.897h-8.897zM9.931 75.172h8.897v8.897H9.931zm32.021-21.81h2.62q.644-1.764 1.232-3.7t1.178-3.887q.587 1.948 1.192 3.887t1.247 3.7h2.622q.979-2.958 1.82-6.247t1.488-6.486h-2.977q-.185 1.084-.4 2.251t-.433 2.343q-.222 1.176-.471 2.278t-.489 2.04q-.294-.864-.605-1.875t-.615-2.021q-.3-1.01-.569-1.957t-.486-1.7h-2.444q-.2.735-.451 1.672t-.543 1.947q-.295 1.011-.608 2.021t-.644 1.911q-.258-.937-.508-2.04t-.489-2.278q-.241-1.176-.462-2.343t-.406-2.251h-3.102q.646 3.2 1.485 6.486t1.818 6.249z"/></svg>