<svg xmlns="http://www.w3.org/2000/svg" width="60" height="60"><defs><style>.c{fill:#0080ff}</style></defs><path fill="none" d="M0 0h60v60H0z"/><path class="c" d="M28.977 18.694a19 19 0 01.953 21.188l14.009 10.134a36 36 0 000-40.032z" opacity=".15"/><path class="c" d="M43.938 51a.984.984 0 01-.818-1.53 35.021 35.021 0 000-38.94.984.984 0 011.638-1.092 36.988 36.988 0 010 41.124.986.986 0 01-.82.438zM29.93 40.867a.984.984 0 01-.611-.212c-3.867-3.052-13-10.978-17.768-15.222a18.164 18.164 0 00.887 11.717.985.985 0 11-1.81.776 20.122 20.122 0 01-.5-14.577.984.984 0 011.587-.406c3.985 3.576 13.314 11.708 17.927 15.449a18.009 18.009 0 00-1.458-19.115.985.985 0 111.587-1.166 19.982 19.982 0 011 22.283.98.98 0 01-.666.457 1.033 1.033 0 01-.175.016z"/><path class="c" d="M36.473 46.655a.984.984 0 01-.809-1.543 26.589 26.589 0 000-30.224.984.984 0 111.62-1.117 28.556 28.556 0 010 32.458.983.983 0 01-.811.426z"/></svg>