<svg xmlns="http://www.w3.org/2000/svg" width="60" height="60"><defs><style>.c{fill:#0080ff}.d{fill:#fff}</style></defs><path fill="none" d="M0 0h60v60H0z"/><rect class="c" width="40" height="40" rx="4.5" transform="translate(10 12)" opacity=".15"/><path class="d" d="M34 37V24h8L30 9 18 24h8v13z"/><path class="c" d="M34 38h-8a1 1 0 01-1-1V25h-7a1 1 0 01-.781-1.625l12-15a1.034 1.034 0 011.562 0l12 15A1 1 0 0142 25h-7v12a1 1 0 01-1 1zm-7-2h6V24a1 1 0 011-1h5.919L30 10.6 20.081 23H26a1 1 0 011 1z"/><path class="c" d="M45.5 12H43a1 1 0 00-1 1 1 1 0 001 1h2.5a2.5 2.5 0 012.5 2.5v31a2.5 2.5 0 01-2.5 2.5h-31a2.5 2.5 0 01-2.5-2.5v-31a2.5 2.5 0 012.5-2.5H17a1 1 0 001-1 1 1 0 00-1-1h-2.5a4.5 4.5 0 00-4.5 4.5v31a4.5 4.5 0 004.5 4.5h31a4.5 4.5 0 004.5-4.5v-31a4.5 4.5 0 00-4.5-4.5z"/><path class="d" d="M34 41h-8.051"/><path class="c" d="M34 42h-8.051a1 1 0 110-2H34a1 1 0 010 2z"/><path class="d" d="M32 45h-4"/><path class="c" d="M32 46h-4a1 1 0 010-2h4a1 1 0 010 2z"/></svg>