<svg xmlns="http://www.w3.org/2000/svg" width="60" height="60"><rect width="40" height="40" rx="4" transform="translate(10 10)" opacity=".15" fill="#0080ff"/><path fill="none" d="M0 0h60v60H0z"/><path d="M12 14a2 2 0 012-2h19a1 1 0 001-1 1 1 0 00-1-1H14a4 4 0 00-4 4v15a1 1 0 001 1 1 1 0 001-1zm36 32a2 2 0 01-2 2H27a1 1 0 00-1 1 1 1 0 001 1h19a4 4 0 004-4V31a1 1 0 00-1-1 1 1 0 00-1 1z" fill="#0080ff"/><path d="M29 18h10v-6l12 9-12 9v-6H29zm-4 0v6m-4-5v4m10 19H21v6L9 39l12-9v6h10zm4 0v-6m4 5v-4" fill="#fff" stroke="#0080ff" stroke-linecap="round" stroke-linejoin="round" stroke-width="2"/></svg>