<svg xmlns="http://www.w3.org/2000/svg" width="60" height="60"><defs><style>.c{fill:#0080ff}.d{fill:#fff}</style></defs><path fill="none" d="M0 0h60v60H0z"/><rect class="c" width="40" height="40" rx="4.5" transform="translate(10 12)" opacity=".15"/><path class="d" d="M26 17v13h-8l12 15 12-15h-8V17z"/><path class="c" d="M30 46a1 1 0 01-.781-.375l-12-15A1 1 0 0118 29h7V17a1 1 0 011-1h8a1 1 0 011 1v12h7a1 1 0 01.781 1.625l-12 15A1 1 0 0130 46zm-9.919-15L30 43.4 39.919 31H34a1 1 0 01-1-1V18h-6v12a1 1 0 01-1 1z"/><path class="c" d="M45.5 12H43a1 1 0 00-1 1 1 1 0 001 1h2.5a2.5 2.5 0 012.5 2.5v31a2.5 2.5 0 01-2.5 2.5h-31a2.5 2.5 0 01-2.5-2.5v-31a2.5 2.5 0 012.5-2.5H17a1 1 0 001-1 1 1 0 00-1-1h-2.5a4.5 4.5 0 00-4.5 4.5v31a4.5 4.5 0 004.5 4.5h31a4.5 4.5 0 004.5-4.5v-31a4.5 4.5 0 00-4.5-4.5z"/><path class="d" d="M26 13h8.051"/><path class="c" d="M34.051 14H26a1 1 0 010-2h8.051a1 1 0 010 2z"/><path class="d" d="M28 9h4"/><path class="c" d="M32 10h-4a1 1 0 010-2h4a1 1 0 010 2z"/></svg>