<svg xmlns="http://www.w3.org/2000/svg" width="152.999" height="58"><defs><linearGradient id="b" x1=".915" y1="1.039" x2="-.383" y2=".369" gradientUnits="objectBoundingBox"><stop offset="0" stop-color="#00a0ff"/><stop offset=".007" stop-color="#00a1ff"/><stop offset=".26" stop-color="#00beff"/><stop offset=".512" stop-color="#00d2ff"/><stop offset=".76" stop-color="#00dfff"/><stop offset="1" stop-color="#00e3ff"/></linearGradient><linearGradient id="c" x1="1.076" y1=".759" x2="-1.305" y2=".759" gradientUnits="objectBoundingBox"><stop offset="0" stop-color="#ffe000"/><stop offset=".409" stop-color="#ffbd00"/><stop offset=".775" stop-color="orange"/><stop offset="1" stop-color="#ff9c00"/></linearGradient><linearGradient id="d" x1=".862" y1="-.006" x2="-.501" y2="-1.776" gradientUnits="objectBoundingBox"><stop offset="0" stop-color="#ff3a44"/><stop offset="1" stop-color="#c31162"/></linearGradient><linearGradient id="e" x1="-.188" y1="2.714" x2=".421" y2="1.924" gradientUnits="objectBoundingBox"><stop offset="0" stop-color="#32a071"/><stop offset=".068" stop-color="#2da771"/><stop offset=".476" stop-color="#15cf74"/><stop offset=".801" stop-color="#06e775"/><stop offset="1" stop-color="#00f076"/></linearGradient><filter id="a" x="0" y="0" width="152.999" height="58" filterUnits="userSpaceOnUse"><feOffset dy="3"/><feGaussianBlur stdDeviation="3" result="b"/><feFlood flood-opacity=".349"/><feComposite operator="in" in2="b"/><feComposite in="SourceGraphic"/></filter></defs><g transform="translate(-.001)" filter="url(#a)"><rect width="134.999" height="40" rx="6" transform="translate(9 6)" fill="#fff"/></g><path d="M56.418 16.243a2.706 2.706 0 01-.745 2 2.907 2.907 0 01-2.2.888 3.134 3.134 0 110-6.268 3.1 3.1 0 011.232.252 2.466 2.466 0 01.938.67l-.527.528a2.026 2.026 0 00-1.643-.712 2.4 2.4 0 101.676 4.123 1.889 1.889 0 00.5-1.215H53.47v-.721h2.908a2.533 2.533 0 01.04.455zm4.609-2.505h-2.733v1.9h2.464v.721h-2.464v1.9h2.733v.738h-3.5v-6h3.5zM64.278 19h-.768v-5.262h-1.676V13h4.123v.738h-1.675zm4.66 0v-6h.77v6zm4.19 0h-.772v-5.262H70.68V13h4.123v.738h-1.676zm9.483-.775a3.115 3.115 0 01-4.4 0 3.24 3.24 0 010-4.449 3.1 3.1 0 014.395 0 3.231 3.231 0 010 4.446zm-3.83-.5a2.308 2.308 0 003.26 0 2.559 2.559 0 000-3.445 2.308 2.308 0 00-3.26 0 2.561 2.561 0 000 3.445zM84.574 19v-6h.938l2.916 4.668h.033l-.033-1.156V13h.772v6h-.8l-3.051-4.893h-.033l.033 1.156v3.738z" fill="#1f333d" stroke="#1f333d" stroke-miterlimit="10" stroke-width=".2"/><path d="M77.135 27.752a4.253 4.253 0 104.269 4.253 4.192 4.192 0 00-4.269-4.253zm0 6.831a2.584 2.584 0 112.4-2.577 2.461 2.461 0 01-2.4 2.577zm-9.313-6.831a4.253 4.253 0 104.269 4.253 4.192 4.192 0 00-4.269-4.253zm0 6.831a2.584 2.584 0 112.4-2.577 2.461 2.461 0 01-2.4 2.577zm-11.079-5.526v1.8h4.318a3.767 3.767 0 01-.983 2.272 4.42 4.42 0 01-3.335 1.321 4.8 4.8 0 010-9.6 4.6 4.6 0 013.255 1.289l1.272-1.273a6.3 6.3 0 00-4.527-1.82 6.606 6.606 0 100 13.21 6.04 6.04 0 004.608-1.853 6.509 6.509 0 001.466-5.348zm45.308 1.4a3.952 3.952 0 00-3.641-2.707 4.043 4.043 0 00-4.012 4.253 4.161 4.161 0 004.221 4.253 4.229 4.229 0 003.544-1.884l-1.449-.967a2.431 2.431 0 01-2.095 1.176 2.163 2.163 0 01-2.062-1.289l5.687-2.352zm-5.8 1.418a2.332 2.332 0 012.222-2.481 1.647 1.647 0 011.579.9zm-4.624 4.124h1.869v-12.5h-1.868zm-3.061-7.3h-.064a2.947 2.947 0 00-2.24-.951 4.257 4.257 0 000 8.506 2.9 2.9 0 002.24-.966h.066v.612c0 1.628-.87 2.5-2.272 2.5a2.352 2.352 0 01-2.143-1.515l-1.628.677a4.053 4.053 0 003.77 2.513c2.191 0 4.043-1.288 4.043-4.43v-7.637h-1.77zm-2.142 5.88a2.587 2.587 0 010-5.155 2.6 2.6 0 010 5.155zm24.381-11.083h-4.472v12.5h1.866v-4.737h2.606a3.888 3.888 0 100-7.764zm.048 6.025h-2.654v-4.286h2.654a2.143 2.143 0 110 4.286zm11.532-1.8a3.5 3.5 0 00-3.33 1.914l1.657.692a1.768 1.768 0 011.7-.917 1.8 1.8 0 011.963 1.608v.128a4.137 4.137 0 00-1.947-.483c-1.785 0-3.6.982-3.6 2.815a2.888 2.888 0 003.1 2.75 2.635 2.635 0 002.381-1.223h.064v.965h1.8v-4.793c.007-2.21-1.65-3.448-3.788-3.448zm-.226 6.852c-.611 0-1.463-.306-1.463-1.062 0-.965 1.062-1.335 1.978-1.335a3.331 3.331 0 011.705.418 2.262 2.262 0 01-2.22 1.986zm10.583-6.578l-2.139 5.42h-.065l-2.219-5.42h-2.01l3.329 7.576-1.9 4.213h1.947l5.13-11.789zm-16.807 8h1.866v-12.5h-1.866z" fill="#1f333d"/><path d="M614.653 368.7a2 2 0 00-.463 1.4v22.116a2 2 0 00.463 1.4l.074.072 12.388-12.388v-.293l-12.388-12.389z" transform="translate(-595.218 -355.162)" fill="url(#b)"/><path d="M633.831 387.092l-4.13-4.131v-.293l4.131-4.131.092.053 4.893 2.78c1.4.794 1.4 2.093 0 2.888l-4.893 2.781z" transform="translate(-597.803 -356.814)" fill="url(#c)"/><path d="M631.432 387.894l-4.223-4.224-12.463 12.463a1.626 1.626 0 002.078.061l14.608-8.3" transform="translate(-595.311 -357.669)" fill="url(#d)"/><path d="M631.432 376.874l-14.608-8.3a1.626 1.626 0 00-2.078.062l12.462 12.464z" transform="translate(-595.311 -355.097)" fill="url(#e)"/><path d="M36.028 30.132l-14.516 8.247a1.665 1.665 0 01-2 .011l-.074.074.074.073a1.663 1.663 0 002-.011l14.608-8.3z" style="isolation:isolate" opacity=".2"/><path d="M19.435 38.319a2 2 0 01-.463-1.4v.146a2 2 0 00.463 1.4l.074-.074zm21.58-11.02l-4.986 2.833.092.093 4.893-2.78a1.756 1.756 0 001.048-1.443 1.864 1.864 0 01-1.047 1.297z" style="isolation:isolate" opacity=".12"/><path d="M21.513 13.623l19.5 11.08a1.862 1.862 0 011.048 1.3 1.753 1.753 0 00-1.048-1.443l-19.5-11.08c-1.4-.794-2.541-.135-2.541 1.466v.147c0-1.604 1.143-2.264 2.541-1.47z" style="isolation:isolate" opacity=".25" fill="#fff"/></svg>