<svg xmlns="http://www.w3.org/2000/svg" xmlns:xlink="http://www.w3.org/1999/xlink" width="48" height="48" viewBox="0 0 48 48"><defs><style>.a{fill:none;}.b{opacity:0.6;}.c{clip-path:url(#a);}.d{fill:#010101;}.e{opacity:0.45;}.f{clip-path:url(#b);}.g{opacity:0.8;}.h{clip-path:url(#c);}.i{clip-path:url(#d);}.j{clip-path:url(#e);}</style><clipPath id="a"><path d="M720.6,306.4h29.465v15.407H720.6Z" transform="translate(-720.6 -306.4)"/></clipPath><clipPath id="b"><path d="M720.6,0h14.735V33.155H720.6Z" transform="translate(-720.6)"/></clipPath><clipPath id="c"><path d="M975,0h14.735V33.155H975Z" transform="translate(-975)"/></clipPath><clipPath id="d"><path d="M720.6,470.3h14.735v20.759H720.6Z" transform="translate(-720.6 -470.3)"/></clipPath><clipPath id="e"><path d="M975,470.3h14.741v20.759H975Z" transform="translate(-975 -470.3)"/></clipPath></defs><circle class="a" cx="24" cy="24" r="24"/><g transform="translate(9.087)"><g class="b" transform="translate(0 17.747)"><g class="c" transform="translate(0 0)"><path class="d" d="M735.335,306.4,720.6,313.1l14.735,8.706,14.73-8.706Z" transform="translate(-720.6 -306.4)"/></g></g><g class="e" transform="translate(0)"><g class="f" transform="translate(0)"><path class="d" d="M720.6,24.449l14.735,8.706V0Z" transform="translate(-720.6)"/></g></g><g class="g" transform="translate(14.735)"><g class="h" transform="translate(0)"><path class="d" d="M975,0V33.155l14.729-8.706Z" transform="translate(-975)"/></g></g><g class="e" transform="translate(0 27.241)"><g class="i" transform="translate(0 0)"><path class="d" d="M720.6,470.3l14.735,20.759V479.006Z" transform="translate(-720.6 -470.3)"/></g></g><g class="g" transform="translate(14.735 27.241)"><g class="j" transform="translate(0 0)"><path class="d" d="M975,479.006v12.054L989.741,470.3Z" transform="translate(-975 -470.3)"/></g></g></g></svg>