<svg xmlns="http://www.w3.org/2000/svg" width="48" height="48.006" viewBox="0 0 48 48.006"><defs><style>.a{opacity:0.4;}.b{fill:#2b56f5;}.c{fill:#fff;}</style></defs><g class="a" transform="translate(-1304 -5732)"><path class="b" d="M47.279,29.812A23.994,23.994,0,1,1,29.8.721,24,24,0,0,1,47.279,29.812Z" transform="translate(1304.002 5731.998)"/><path class="c" d="M38.472,23.373c.478-3.194-1.954-4.911-5.279-6.056l1.079-4.326-2.634-.656-1.05,4.212c-.692-.173-1.4-.335-2.11-.5l1.058-4.24L26.9,11.153l-1.079,4.325c-.573-.131-1.136-.26-1.682-.4l0-.014-3.632-.907-.7,2.813s1.954.448,1.913.476a1.4,1.4,0,0,1,1.227,1.532l-1.229,4.929A2.182,2.182,0,0,1,22,24l-.278-.069L20,30.834a.959.959,0,0,1-1.207.626c.026.038-1.914-.478-1.914-.478L15.569,34,19,34.851c.638.16,1.262.327,1.877.485l-1.09,4.376,2.631.656,1.079-4.329c.719.2,1.416.375,2.1.545l-1.076,4.309,2.634.656,1.09-4.368c4.491.85,7.868.507,9.289-3.555,1.145-3.27-.057-5.157-2.42-6.387A4.2,4.2,0,0,0,38.472,23.373ZM32.455,31.81c-.814,3.27-6.32,1.5-8.105,1.059l1.446-5.8C27.581,27.517,33.305,28.4,32.455,31.81Zm.815-8.485c-.743,2.975-5.326,1.463-6.812,1.093l1.311-5.258C29.255,19.531,34.043,20.222,33.269,23.325Z" transform="translate(1300.111 5729.211)"/></g></svg>