<svg xmlns="http://www.w3.org/2000/svg" width="137" height="25" viewBox="0 0 137 25">
  <defs>
    <style>
      .cls-1 {
        fill: #0080ff;
        fill-rule: evenodd;
      }
    </style>
  </defs>
  <path id="registration" class="cls-1" d="M508.205,51.953q-0.642,2.408-1.365,4.784t-1.526,4.783h-3.727q-0.581-1.331-1.257-3.168t-1.4-4.008q-0.726-2.169-1.483-4.594t-1.466-4.893h5.044q0.26,1.14.565,2.486t0.647,2.772q0.339,1.425.712,2.867t0.759,2.772q0.417-1.394.819-2.852t0.772-2.867q0.368-1.409.707-2.723t0.594-2.455h3.47q0.257,1.14.578,2.455t0.675,2.723q0.353,1.41.739,2.867t0.8,2.852q0.389-1.331.776-2.772t0.727-2.867q0.339-1.425.646-2.772t0.566-2.486h4.98q-0.708,2.469-1.466,4.893t-1.482,4.594q-0.724,2.17-1.418,4.008t-1.272,3.168h-3.727q-0.8-2.406-1.575-4.783T508.205,51.953Zm-28.9-6.477a27.1,27.1,0,0,1,3.149-.65,26.166,26.166,0,0,1,4.048-.3,10,10,0,0,1,3.582.555,5.4,5.4,0,0,1,2.266,1.568,6.1,6.1,0,0,1,1.188,2.409,12.613,12.613,0,0,1,.353,3.1v9.409H489.1V52.731a6.3,6.3,0,0,0-.61-3.232,2.507,2.507,0,0,0-2.281-.95q-0.515,0-1.093.048c-0.385.031-.728,0.069-1.028,0.111V61.569h-4.787V45.476Zm49.544-1.014a11.224,11.224,0,0,1,3.534.475,5.51,5.51,0,0,1,2.266,1.362,4.99,4.99,0,0,1,1.2,2.154,10.47,10.47,0,0,1,.354,2.82v9.82q-1.029.222-2.86,0.523a27.944,27.944,0,0,1-4.434.3,14.259,14.259,0,0,1-2.972-.285,6.5,6.5,0,0,1-2.3-.934A4.3,4.3,0,0,1,522.166,59a5.791,5.791,0,0,1-.514-2.566,4.8,4.8,0,0,1,.595-2.471,4.544,4.544,0,0,1,1.59-1.616,7.292,7.292,0,0,1,2.281-.871,13.012,13.012,0,0,1,2.667-.27,15.318,15.318,0,0,1,1.655.08,7.6,7.6,0,0,1,1.173.206V51.051a2.592,2.592,0,0,0-.74-1.932,3.61,3.61,0,0,0-2.57-.729,16.615,16.615,0,0,0-2.41.175,10.452,10.452,0,0,0-2.056.492l-0.61-3.8c0.277-.084.626-0.175,1.044-0.27s0.872-.179,1.365-0.253,1.012-.137,1.559-0.19S528.292,44.462,528.849,44.462Zm0.386,13.812q0.707,0,1.349-.032a9.086,9.086,0,0,0,1.029-.095v-3.58q-0.29-.063-0.868-0.126a9.9,9.9,0,0,0-1.061-.064,9.791,9.791,0,0,0-1.269.08,3.356,3.356,0,0,0-1.044.3,1.777,1.777,0,0,0-.707.6,1.656,1.656,0,0,0-.257.95,1.611,1.611,0,0,0,.756,1.537A4.215,4.215,0,0,0,529.235,58.274Zm27.369-4.91a10.069,10.069,0,0,1,.69-3.88,8.308,8.308,0,0,1,1.816-2.772,7.544,7.544,0,0,1,2.587-1.679,8.193,8.193,0,0,1,3-.57,7.524,7.524,0,0,1,5.687,2.17q2.09,2.171,2.089,6.384c0,0.274-.011.576-0.032,0.9s-0.044.618-.065,0.871h-10.86A3.13,3.13,0,0,0,562.9,57.1a5.612,5.612,0,0,0,3.277.855,13.972,13.972,0,0,0,2.587-.238,9.855,9.855,0,0,0,2.072-.586l0.643,3.833a6.57,6.57,0,0,1-1.028.38,13.6,13.6,0,0,1-1.43.333q-0.788.142-1.687,0.238a16.926,16.926,0,0,1-1.8.095,10.766,10.766,0,0,1-3.968-.665,7.724,7.724,0,0,1-2.8-1.821,7.2,7.2,0,0,1-1.638-2.74A10.7,10.7,0,0,1,556.6,53.364Zm11.245-1.805a4.831,4.831,0,0,0-.209-1.172,2.842,2.842,0,0,0-1.478-1.742,3.07,3.07,0,0,0-1.4-.285,3.26,3.26,0,0,0-1.382.269,2.862,2.862,0,0,0-.964.714,3.182,3.182,0,0,0-.594,1.029,6.7,6.7,0,0,0-.306,1.189h6.33Zm8.161-8.541,4.788-3.023v4.911h5.751v3.928H580.8v5.86a4.6,4.6,0,0,0,.53,2.377,2.287,2.287,0,0,0,2.136.886,9.273,9.273,0,0,0,1.591-.142,8.292,8.292,0,0,0,1.494-.4l0.674,3.675a13.818,13.818,0,0,1-1.927.6,11.456,11.456,0,0,1-2.6.253,8.689,8.689,0,0,1-3.245-.523,5.079,5.079,0,0,1-2.056-1.457,5.4,5.4,0,0,1-1.077-2.265,13.163,13.163,0,0,1-.305-2.946V43.018ZM475,49.626a8.037,8.037,0,0,0-1.7-2.757,7.636,7.636,0,0,0-2.619-1.773,9.12,9.12,0,0,0-6.683,0,7.794,7.794,0,0,0-2.634,1.773,8.075,8.075,0,0,0-1.735,2.757,9.82,9.82,0,0,0-.627,3.58,10.162,10.162,0,0,0,.611,3.6,8.159,8.159,0,0,0,1.7,2.788,7.517,7.517,0,0,0,2.619,1.79c0.034,0.014.069,0.023,0.1,0.036l3.347-3.3v3.894a8.834,8.834,0,0,0,3.362-.63,7.513,7.513,0,0,0,2.618-1.79,7.8,7.8,0,0,0,1.671-2.788,10.709,10.709,0,0,0,.578-3.6A10.058,10.058,0,0,0,475,49.626Zm-5.157,7.048a2.881,2.881,0,0,1-2.522,1.283,2.921,2.921,0,0,1-2.539-1.283,5.946,5.946,0,0,1-.9-3.468,5.8,5.8,0,0,1,.9-3.437,2.945,2.945,0,0,1,2.539-1.252,2.9,2.9,0,0,1,2.522,1.252,5.871,5.871,0,0,1,.884,3.437A6.022,6.022,0,0,1,469.843,56.674Zm83.346,4.894V40.009L548.4,36.986V61.569h4.787Zm-7.858,0V36.986l-4.787,3.023v21.56h4.787Zm43.236-20.727a3.964,3.964,0,0,1,.489-1.935,3.674,3.674,0,0,1,6.455,0,4.071,4.071,0,0,1-.008,3.884,3.686,3.686,0,0,1-1.359,1.406,3.647,3.647,0,0,1-3.732-.005,3.685,3.685,0,0,1-1.353-1.409A3.956,3.956,0,0,1,588.567,40.841Zm0.639,0a3.35,3.35,0,0,0,.389,1.59,3.05,3.05,0,0,0,1.108,1.185,3.014,3.014,0,0,0,3.153,0,3.061,3.061,0,0,0,1.108-1.182,3.435,3.435,0,0,0,0-3.187,3.045,3.045,0,0,0-1.11-1.177,2.942,2.942,0,0,0-1.571-.441,2.982,2.982,0,0,0-1.546.423,3.012,3.012,0,0,0-1.123,1.166A3.313,3.313,0,0,0,589.206,40.841Zm2.324,0.392v1.739h-0.791V38.586h1.471a1.948,1.948,0,0,1,1.254.361,1.216,1.216,0,0,1,.447,1,0.961,0.961,0,0,1-.56.877,0.907,0.907,0,0,1,.424.454A1.869,1.869,0,0,1,593.9,42q0,0.426.018,0.6a0.977,0.977,0,0,0,.071.294v0.083h-0.812a4.073,4.073,0,0,1-.068-1,0.778,0.778,0,0,0-.172-0.565,0.8,0.8,0,0,0-.576-0.173H591.53Zm0-.692h0.67a1.243,1.243,0,0,0,.662-0.163,0.493,0.493,0,0,0,.264-0.436,0.629,0.629,0,0,0-.186-0.513,1.112,1.112,0,0,0-.672-0.158H591.53v1.27Z" transform="translate(-459 -37)"/>
</svg>
