<svg xmlns="http://www.w3.org/2000/svg" width="86" height="86" viewBox="0 0 86 86"><defs><style>.a{fill:#0080ff;}</style></defs><g transform="translate(-530.5 -530.5)"><path d="M556.561,533.106V530.5h-5.212v2.606h5.212Z"/><rect width="2.606" height="2.606" transform="translate(559.167 530.5)"/><path d="M569.591,533.106V530.5h-5.212v2.606h5.212Z"/><rect width="2.606" height="2.606" transform="translate(577.409 530.5)"/><path d="M572.2,535.712v2.606H574.8v2.606h5.212v5.212h2.606V543.53h5.212v5.212h2.606v-7.818h-2.606v-2.606h2.606v2.606h2.606v7.818h2.606V530.5h-2.606v5.212h-2.606V530.5h-5.212v2.606h2.606v2.606h-2.606v2.606h-5.212v-2.606H574.8v-2.606h-5.212v2.606Z"/><rect width="2.606" height="2.606" transform="translate(580.015 533.106)"/><rect width="2.606" height="2.606" transform="translate(566.985 535.712)"/><path d="M559.167,538.318v-2.606h-7.818v2.606h2.606v2.606h2.606v2.606h2.606v-5.212Z"/><rect width="2.606" height="2.606" transform="translate(551.349 540.924)"/><path d="M564.379,540.924h2.606v-2.606h-2.606v-5.212h-2.606V543.53h2.606Z"/><rect width="2.606" height="2.606" transform="translate(569.591 540.924)"/><rect width="2.606" height="2.606" transform="translate(559.167 543.53)"/><path d="M566.985,546.136v7.818h2.606V543.53h-2.606Z"/><path d="M580.015,548.742v-2.606h-2.606v2.606H574.8V543.53H572.2v7.818h5.212v2.606h2.606v-2.606h5.212v-5.212h-2.606v2.606Z"/><path d="M546.136,551.349H543.53v2.606h5.212v-2.606Z"/><path d="M553.955,553.955h2.606v-2.606h2.606v7.818h2.606v-7.818h2.606v-5.212h-2.606v2.606h-2.606v-2.606h-2.606v2.606h-2.606v-2.606h-2.606v5.212h2.606Z"/><rect width="2.606" height="2.606" transform="translate(598.258 551.349)"/><path d="M606.076,551.349H603.47v2.606h-2.606v7.818h2.606v-5.212h2.606v-5.212Z"/><rect width="2.606" height="2.606" transform="translate(613.894 551.349)"/><path d="M548.742,553.955v2.606h-2.606v2.606h10.424v-2.606h-5.212v-2.606Z"/><path d="M564.379,556.561v2.606h5.212v-2.606h-2.606v-2.606h-2.606Z"/><rect width="2.606" height="2.606" transform="translate(572.197 553.955)"/><path d="M582.621,556.561v2.606h2.606v-2.606h2.606v2.606h2.606v-2.606h2.606v-5.212h-5.212v2.606h-7.818v2.606Z"/><rect width="2.606" height="2.606" transform="translate(595.651 553.955)"/><path d="M611.288,553.955v-2.606h-2.606v5.212h2.606Z"/><rect width="2.606" height="2.606" transform="translate(533.106 556.561)"/><path d="M538.318,559.167h2.606v-5.212h-5.212v2.606h2.606Z"/><path d="M613.894,556.561h-2.606v2.606h-2.606v-2.606h-2.606v10.424h2.606V572.2h2.606v-2.606h2.606v-2.606h-2.606v-2.606h-2.606v-2.606H616.5v-2.606h-2.606Z"/><rect width="2.606" height="2.606" transform="translate(595.651 559.167)"/><path d="M595.651,564.379v-2.606h-5.212v5.212h2.606v-2.606Z"/><path d="M598.258,564.379v2.606h-5.212v2.606h2.606V574.8h2.606v-5.212h5.212v-5.212h-2.606v-2.606h-2.606Z"/><path d="M543.53,564.379v-5.212h-2.606v2.606h-2.606v-2.606h-2.606v2.606H530.5v2.606h10.424v2.606h2.606Z"/><rect width="2.606" height="2.606" transform="translate(613.894 564.379)"/><rect width="2.606" height="2.606" transform="translate(530.5 566.985)"/><rect width="2.606" height="2.606" transform="translate(587.833 566.985)"/><rect width="2.606" height="2.606" transform="translate(553.955 569.591)"/><rect width="2.606" height="2.606" transform="translate(613.894 569.591)"/><path d="M533.106,572.2H530.5v5.212h2.606V574.8h5.212V572.2h-5.212Z"/><path d="M593.045,572.2h-2.606v10.424h2.606v2.606h5.212v-2.606h-2.606v-2.606h-2.606v-2.606h2.606V574.8h-2.606Z"/><path d="M606.076,574.8V572.2h-5.212V574.8h5.212Z"/><rect width="2.606" height="2.606" transform="translate(546.136 577.409)"/><path d="M551.349,580.015h2.606v-2.606h5.212V574.8h-5.212V572.2h-2.606v-2.606h2.606v-2.606h-2.606v-2.606h2.606v2.606h5.212v-2.606h-2.606v-2.606H546.136v2.606h2.606v2.606h-2.606v2.606h2.606V572.2h-2.606v-2.606h-5.212v-2.606h-5.212v2.606h2.606V572.2h2.606V574.8h7.818v2.606h2.606Z"/><path d="M598.258,580.015h2.606V574.8h-2.606v5.212Z"/><path d="M538.318,582.621h2.606v-5.212h-5.212v2.606h2.606Z"/><rect width="2.606" height="2.606" transform="translate(548.742 580.015)"/><rect width="2.606" height="2.606" transform="translate(556.561 580.015)"/><path d="M600.864,585.227v2.606h2.606v2.606h2.606v-2.606h2.606v-5.212H616.5V574.8h-5.212v2.606h2.606v2.606h-2.606v-2.606H603.47v2.606h-2.606v5.212Z"/><rect width="2.606" height="2.606" transform="translate(553.955 585.227)"/><path d="M587.833,585.227v2.606h-2.606v2.606h2.606v2.606h2.606v-5.212h2.606v-2.606h-5.212Z"/><rect width="2.606" height="2.606" transform="translate(574.803 587.833)"/><rect width="2.606" height="2.606" transform="translate(580.015 587.833)"/><rect width="2.606" height="2.606" transform="translate(611.288 587.833)"/><path d="M574.8,593.045v-2.606H572.2v-2.606h-2.606v5.212H574.8Z"/><rect width="2.606" height="2.606" transform="translate(577.409 590.439)"/><path d="M603.47,590.439h-2.606v2.606h-7.819v5.213h-2.606v5.212h2.606v7.818h2.607v-2.606h2.606v-2.606h2.606v2.606h2.606v2.606h2.606v2.606h5.212v-2.606h-2.606v-5.212h-2.606V603.47h5.212v2.606h2.606v2.606h-2.606v2.606H616.5V603.47h-2.606v-5.212h-2.606v2.606h-2.606v-5.212h-2.606v-2.607H603.47Zm0,7.819v5.212h-7.818v-7.818h7.818Z"/><path d="M608.682,593.045h2.606v-2.606h-5.212v2.606Z"/><rect width="2.606" height="2.606" transform="translate(613.894 590.439)"/><path d="M538.318,593.045h-5.212v-5.212h5.212v-2.606h-5.212v-2.606h2.606v-2.606H530.5v15.636h13.03v-2.606h-5.212Z"/><rect width="2.606" height="2.606" transform="translate(546.136 593.045)"/><path d="M553.955,593.045v-5.212h-2.606v-2.606h-2.606v2.606h-2.606v-2.606h2.606v-2.606h-2.606v-2.606H543.53v7.818h-5.212v2.606h5.212v2.606h2.606v-2.606h5.212v7.818h2.606v-5.212Z"/><rect width="2.606" height="2.606" transform="translate(574.803 593.045)"/><rect width="2.606" height="2.606" transform="translate(556.561 595.651)"/><path d="M572.2,595.651h-2.606v-2.606h-7.818v-2.606h-2.606v-2.606h-2.606v5.212h2.606v2.606h2.606v2.606h-2.606v2.606h-2.606v5.212h-2.606V616.5h7.818v-2.606h-5.212v-5.212h5.212v-2.606h2.606V603.47h-2.606v-2.606h5.212v-2.606h-2.606v-2.606h2.606v2.606h2.606v2.606H572.2v-2.606H574.8v-2.606Z"/><rect width="2.606" height="2.606" transform="translate(613.894 595.651)"/><rect width="2.606" height="2.606" transform="translate(553.955 598.258)"/><rect width="2.606" height="2.606" transform="translate(585.227 598.258)"/><rect width="2.606" height="2.606" transform="translate(598.258 598.258)"/><rect width="2.606" height="2.606" transform="translate(551.349 600.864)"/><path d="M577.409,600.864h2.606v2.606h5.212v-2.606h-2.606v-5.212h-2.606v2.606H574.8v5.212h2.606Z"/><rect width="2.606" height="2.606" transform="translate(585.227 603.47)"/><rect width="2.606" height="2.606" transform="translate(587.833 606.076)"/><path d="M587.833,611.288v-2.606h-2.606v-2.606H574.8V603.47h-5.212v2.606H572.2v2.606H574.8v2.606H572.2V616.5h5.212v-7.818h2.606v2.606h2.606v2.606h2.606v-2.606Z"/><path d="M561.773,613.894h2.606v-5.212h-2.606v5.212Z"/><rect width="2.606" height="2.606" transform="translate(587.833 611.288)"/><path d="M598.258,613.894h2.606v-2.606h-5.212v2.606Z"/><rect width="2.606" height="2.606" transform="translate(564.379 613.894)"/><rect width="2.606" height="2.606" transform="translate(580.015 613.894)"/><rect width="2.606" height="2.606" transform="translate(585.227 613.894)"/><path d="M590.439,613.894V616.5h5.212v-2.606h-5.212Z"/><rect width="2.606" height="2.606" transform="translate(611.288 613.894)"/><path d="M546.006,548.742h2.736V530.5H530.5v18.242h15.506Zm-12.77-15.506h12.77v12.77h-12.77Z"/><path d="M613.764,530.5H598.258v18.242H616.5V530.5Zm0,15.506h-12.77v-12.77h12.77Z"/><path d="M533.236,598.258H530.5V616.5h18.242V598.258H533.236Zm12.77,15.506h-12.77v-12.77h12.77Z"/><rect width="7.818" height="7.818" transform="translate(535.712 535.712)"/><rect width="7.818" height="7.818" transform="translate(603.47 535.712)"/><rect width="7.818" height="7.818" transform="translate(535.712 603.47)"/><path class="a" d="M581.736,569.583a8.767,8.767,0,0,0-1.822-2.993,8.189,8.189,0,0,0-2.8-1.925,9.189,9.189,0,0,0-3.594-.688,9.073,9.073,0,0,0-3.56.688,8.334,8.334,0,0,0-2.82,1.925,8.816,8.816,0,0,0-1.856,2.993,10.776,10.776,0,0,0-.672,3.886,11.194,11.194,0,0,0,.654,3.9,8.9,8.9,0,0,0,1.823,3.026,8.04,8.04,0,0,0,2.8,1.943c.035.015.074.025.11.039l3.582-3.581v4.227a9.35,9.35,0,0,0,3.6-.685,8.049,8.049,0,0,0,2.8-1.943,8.474,8.474,0,0,0,1.788-3.026,11.75,11.75,0,0,0,.619-3.9A11.064,11.064,0,0,0,581.736,569.583Zm-5.52,7.651a3.07,3.07,0,0,1-2.7,1.393,3.113,3.113,0,0,1-2.717-1.393,6.523,6.523,0,0,1-.963-3.765,6.35,6.35,0,0,1,.963-3.731,3.136,3.136,0,0,1,2.717-1.359,3.092,3.092,0,0,1,2.7,1.359,6.43,6.43,0,0,1,.946,3.731,6.6,6.6,0,0,1-.946,3.763Z"/></g></svg>