<svg xmlns="http://www.w3.org/2000/svg" width="60" height="60" viewBox="0 0 60 60"><defs><style>.a,.c{fill:none;}.b,.f,.i{fill:#0080ff;}.b{opacity:0.15;}.c,.e,.g{stroke:#0080ff;stroke-width:2px;}.c,.d,.e,.g{stroke-miterlimit:10;}.d,.e,.g{fill:#fff;}.g{stroke-linecap:round;}.h,.i{stroke:none;}</style></defs><rect class="a" width="60" height="60" transform="translate(0 0)"/><rect class="b" width="26" height="37" rx="1" transform="translate(17 15)"/><g class="c" transform="translate(17 15)"><rect class="h" width="26" height="37" rx="1"/><rect class="a" x="1" y="1" width="24" height="35"/></g><g class="c" transform="translate(19.083 11)"><rect class="h" width="22" height="6" rx="1"/><rect class="a" x="1" y="1" width="20" height="4"/></g><g class="d"><path class="h" d="M 19.5 51 L 12 51 C 10.34578990936279 51 9 49.65420913696289 9 48 C 9 46.5177001953125 10.06970977783203 45.27674865722656 11.54351997375488 45.04930114746094 L 12.09580039978027 44.96406936645508 L 12.31264972686768 44.44903182983398 C 12.93900966644287 42.96129989624023 14.38638973236084 42 16 42 C 16.96820068359375 42 17.89987945556641 42.35250854492188 18.62339973449707 42.99259948730469 C 19.34081077575684 43.62728118896484 19.80857086181641 44.49985885620117 19.94050979614258 45.44960021972656 L 20.01658058166504 45.99713897705078 L 20.52070045471191 46.22394943237305 C 21.41934013366699 46.62826156616211 22 47.52167129516602 22 48.5 C 22 49.87850189208984 20.87849998474121 51 19.5 51 Z"/><path class="i" d="M 16 43 C 14.78974914550781 43 13.70413970947266 43.72108840942383 13.23428916931152 44.83707046508789 L 12.80060958862305 45.86714172363281 L 11.6960391998291 46.03760147094727 C 10.71328926086426 46.18927001953125 10 47.01456832885742 10 48 C 10 49.10279846191406 10.8971996307373 50 12 50 L 19.5 50 C 20.32709884643555 50 21 49.32709884643555 21 48.5 C 21 47.91447830200195 20.65081024169922 47.3790397644043 20.11040115356445 47.13589859008789 L 19.1021614074707 46.68227005004883 L 18.95001983642578 45.58720016479492 C 18.74512100219727 44.11225891113281 17.47689056396484 43 16 43 M 16 41 C 18.5260009765625 41 20.5930004119873 42.87900161743164 20.93099975585938 45.3120002746582 C 22.14900016784668 45.86000061035156 23 47.07799911499023 23 48.5 C 23 50.43299865722656 21.43299865722656 52 19.5 52 L 12 52 C 9.791000366210938 52 8 50.20899963378906 8 48 C 8 46 9.472999572753906 44.35699844360352 11.39100074768066 44.06100082397461 C 12.14800071716309 42.26300048828125 13.92600059509277 41 16 41 Z"/></g><g class="e" transform="translate(40 31)"><rect class="h" width="12" height="16" rx="6"/><rect class="a" x="1" y="1" width="10" height="14" rx="5"/></g><path class="f" d="M1,0H1A1,1,0,0,1,2,1V4A0,0,0,0,1,2,4H0A0,0,0,0,1,0,4V1A1,1,0,0,1,1,0Z" transform="translate(29 8)"/><line class="g" y1="14" transform="translate(46 37)"/><line class="g" y1="2" x2="2" transform="translate(46 41)"/><line class="g" x2="12" transform="translate(24 20)"/><line class="g" x2="12" transform="translate(24 24)"/><line class="g" x2="12" transform="translate(24 28)"/><line class="g" x2="12" transform="translate(24 32)"/><line class="g" x2="12" transform="translate(24 36)"/><line class="g" x2="12" transform="translate(24 40)"/><line class="g" x2="8" transform="translate(26 44)"/></svg>