<svg xmlns="http://www.w3.org/2000/svg" width="94" height="94" viewBox="0 0 94 94"><defs><style>.a{fill:#fff;}</style></defs><g transform="translate(-645 -587)"><rect class="a" width="94" height="94" transform="translate(645 587)"/><g transform="translate(512.87 -3367.816)"><path d="M187.367,3997.9a8.756,8.756,0,0,0-1.822-2.993,8.181,8.181,0,0,0-2.8-1.925,9.166,9.166,0,0,0-3.594-.688,9.07,9.07,0,0,0-3.56.688,8.337,8.337,0,0,0-2.82,1.925,8.8,8.8,0,0,0-1.856,2.993,10.782,10.782,0,0,0-.672,3.886,11.188,11.188,0,0,0,.654,3.9,8.893,8.893,0,0,0,1.823,3.026,8.033,8.033,0,0,0,2.8,1.943c.035.015.074.025.11.039l3.582-3.581v4.227a9.352,9.352,0,0,0,3.6-.685,8.048,8.048,0,0,0,2.8-1.943,8.475,8.475,0,0,0,1.788-3.026,11.752,11.752,0,0,0,.619-3.9A11.049,11.049,0,0,0,187.367,3997.9Zm-5.52,7.651a3.07,3.07,0,0,1-2.7,1.393,3.113,3.113,0,0,1-2.717-1.393,6.517,6.517,0,0,1-.963-3.765,6.351,6.351,0,0,1,.963-3.731,3.135,3.135,0,0,1,2.717-1.359,3.092,3.092,0,0,1,2.7,1.359,6.435,6.435,0,0,1,.946,3.731A6.6,6.6,0,0,1,181.847,4005.549Z"/><path d="M165.786,3961.782v-2.966H162.82v5.931h2.966Z"/><path d="M189.51,3961.782v-2.966h-2.966v5.931h2.966Z"/><path d="M162.82,3964.747h-2.966v5.931h2.966Z"/><path d="M195.441,3964.747v-2.965h2.966v-2.966h-5.932v8.9h2.966Z"/><rect width="2.966" height="2.966" transform="translate(186.544 3967.713)"/><path d="M165.786,3970.678H162.82v5.931h2.966Z"/><path d="M192.475,3973.644h2.966v-2.966h-5.932v2.966Z"/><rect width="2.966" height="2.966" transform="translate(168.751 3973.644)"/><rect width="2.966" height="2.966" transform="translate(174.682 3973.644)"/><path d="M180.613,3976.609h2.966v2.966h2.966v-5.931h-2.966v-2.966h-2.966v-5.931h-5.931v2.969h-2.965v-2.969h2.966v-2.965h8.9v-2.966H168.751v11.862h8.9v2.966h2.966Z"/><rect width="2.966" height="2.966" transform="translate(159.854 3976.609)"/><rect width="2.966" height="2.966" transform="translate(165.785 3976.609)"/><rect width="2.966" height="2.966" transform="translate(171.716 3976.609)"/><rect width="2.966" height="2.966" transform="translate(177.647 3976.609)"/><rect width="2.966" height="2.966" transform="translate(195.44 3976.609)"/><rect width="2.966" height="2.966" transform="translate(168.751 3979.575)"/><path d="M189.51,3982.54h2.966v-5.931H189.51v2.966h-2.966v2.966Z"/><path d="M177.648,3982.54h-5.931v2.966h-5.931v-2.966H162.82v2.966h-2.962v-2.966h-5.934v2.966h2.966v2.966h-5.932v5.931h2.966v-2.963h2.966v2.966h2.968v-2.966h2.966v-2.969h11.858v-2.965h5.931v-2.966Z"/><path d="M147.993,3985.506h2.966v-2.966h-5.932v5.931h2.966Z"/><path d="M189.513,3985.506h-2.966v-2.966h-2.966v2.966h-2.968v2.966h11.862v-2.966Z"/><path d="M210.268,3988.471h2.969v-2.965H216.2v-2.966h-5.931v2.966h-5.935v2.966h5.931Z"/><rect width="2.966" height="2.966" transform="translate(216.199 3985.506)"/><rect width="2.966" height="2.966" transform="translate(213.233 3988.471)"/><path d="M207.3,3991.437h-2.966v2.966h5.931v2.966h2.969v-5.932H207.3Z"/><rect width="2.966" height="2.966" transform="translate(219.164 3991.437)"/><rect width="2.966" height="2.966" transform="translate(153.923 3994.402)"/><path d="M204.337,3994.4h-5.931v-2.965h5.931v-2.966H192.475v5.931h2.966v2.969h5.934v2.966h2.966V3994.4Z"/><rect width="2.966" height="2.966" transform="translate(216.199 3994.402)"/><path d="M156.889,3997.368v2.966h-2.966v2.968h2.966v2.966h5.934v2.966h2.966v-8.9h-2.966v-2.966h2.966V3994.4h-5.935v2.966Z"/><rect width="2.966" height="2.966" transform="translate(207.302 3997.368)"/><rect width="2.966" height="2.966" transform="translate(213.233 3997.368)"/><path d="M139.1,4000.333H136.13v5.931H139.1Z"/><path d="M147.992,4000.334v-5.928H145.03v-5.934h-2.969v-2.966H136.13v5.931h5.931v5.931h2.969v5.931h5.931v-2.965Z"/><path d="M195.441,4000.333h-2.966v8.9h5.931v-2.966H195.44V4003.3h2.966v-2.968Z"/><rect width="2.966" height="2.966" transform="translate(204.337 4000.333)"/><path d="M210.268,4003.3H207.3v2.966h2.966v2.968H207.3v2.966h5.931v-5.931H216.2V4003.3h-2.965v-2.969h-2.966Z"/><path d="M219.164,4003.3v5.931h2.966v-11.862h-2.966Z"/><path d="M153.923,4003.3h-2.965v5.931h-2.966v2.969h5.931v-2.966h2.969v-2.966h-2.969Z"/><rect width="2.966" height="2.966" transform="translate(198.406 4003.299)"/><rect width="2.966" height="2.966" transform="translate(204.337 4006.264)"/><path d="M159.854,4012.2v2.966h2.966v-5.932h-2.966Z"/><rect width="2.966" height="2.966" transform="translate(153.923 4012.195)"/><rect width="2.966" height="2.966" transform="translate(192.475 4012.195)"/><rect width="2.966" height="2.966" transform="translate(219.164 4012.195)"/><path d="M147.992,4015.161v2.966h2.966v2.966h8.9v5.931h2.966v-8.9h-8.9v-2.963Z"/><path d="M213.234,4018.126v2.969h-2.966v-2.965H207.3V4012.2h-2.965v2.966h-5.931v2.966H195.44v5.931h-2.966v5.931h-2.966v-5.931h-2.966v2.965h-2.96v-2.965h2.966v-5.931h2.966v-2.966H177.648v2.966h-2.966v2.968h2.966v11.862h-2.966v8.9h5.931v-8.9h2.969v8.9h2.966v-8.9h2.966v2.965h2.966v-2.965h11.862v5.931h2.965v2.966h-2.965v2.965h5.931v-5.934h2.966v-2.966h-5.931v-2.965h2.966v-2.966h2.966v-2.966h-2.966v-2.965h2.966v2.965h2.965v-8.9h2.966v-2.966h-2.966V4012.2H213.24v5.931Zm-32.621,0h2.969v2.969h-2.966Zm26.69,8.9v2.966h-8.9v-8.9h8.9v5.934Z"/><path d="M142.061,4018.126v-2.962h2.969V4012.2h-2.969v-2.966h5.931v-2.969h-8.9v2.966H136.13v11.862h11.862v-2.966Z"/><rect width="2.966" height="2.966" transform="translate(219.164 4018.126)"/><path d="M168.751,4021.092v-2.966h2.966v-2.965h-5.932v11.862h5.931v-2.962h2.969v-2.966h-5.934Z"/><rect width="2.966" height="2.966" transform="translate(201.371 4024.057)"/><path d="M165.785,4032.954v-2.966h-5.931v5.931h2.966v-2.966Z"/><path d="M171.717,4029.988h-2.966v2.966h5.931v-2.966Z"/><path d="M216.2,4032.954h-2.966v2.969H216.2v2.966h2.966v2.966h2.968v-5.932h-2.966v-2.966h2.966v-5.934H216.2v5.931Z"/><rect width="2.966" height="2.966" transform="translate(165.785 4032.954)"/><rect width="2.966" height="2.966" transform="translate(162.82 4035.919)"/><path d="M195.44,4035.919v2.966h2.966v2.966h2.966v-5.932Z"/><path d="M189.509,4041.851v2.966h2.966v-5.932h-2.966Z"/><rect width="2.966" height="2.966" transform="translate(213.233 4038.885)"/><path d="M165.785,4044.816h2.966v-5.931h-2.966Z"/><rect width="2.966" height="2.966" transform="translate(171.716 4041.85)"/><rect width="2.966" height="2.966" transform="translate(180.613 4041.85)"/><rect width="2.966" height="2.966" transform="translate(195.44 4041.85)"/><path d="M153.775,3979.575h3.114v-20.759H136.13v20.759Zm-14.531-17.645h14.531v14.531H139.244Z"/><path d="M219.016,3958.816H201.371v20.759H222.13v-20.759Zm0,17.645H204.485V3961.93h14.531Z"/><path d="M139.244,4024.057H136.13v20.759h20.759v-20.759Zm14.531,17.645H139.244v-14.531h14.531Z"/><rect width="8.897" height="8.897" transform="translate(142.061 3964.747)"/><rect width="8.897" height="8.897" transform="translate(207.302 3964.747)"/><rect width="8.897" height="8.897" transform="translate(142.061 4029.988)"/></g></g></svg>