<svg xmlns="http://www.w3.org/2000/svg" width="913.085" height="461.897" viewBox="0 0 913.085 461.897"><defs><style>.a{fill:none;stroke:#2b56f5;stroke-miterlimit:10;stroke-width:3px;}</style></defs><g transform="translate(-36.767 -143.659)"><circle class="a" cx="6.141" cy="6.141" r="6.141" transform="translate(477.876 366.153)"/><circle class="a" cx="17.691" cy="17.691" r="17.691" transform="translate(466.326 354.602)"/><circle class="a" cx="29.241" cy="29.241" r="29.241" transform="translate(454.776 343.052)"/><path class="a" d="M242.426,298.736a40.715,40.715,0,1,1,22.46,17.132" transform="translate(207.154 95.43)"/><path class="a" d="M238.066,310.007a52.346,52.346,0,1,1,44.7,25.1,52.675,52.675,0,0,1-6.787-.436" transform="translate(201.247 89.524)"/><path class="a" d="M230.151,314.345a63.9,63.9,0,1,1,58.526,38.223" transform="translate(195.34 83.616)"/><path class="a" d="M277.064,220.8a75.454,75.454,0,0,1-19.728,147.434" transform="translate(229.415 79.448)"/><path class="a" d="M220.426,308.511a75.5,75.5,0,0,1,84.507-88.664" transform="translate(189.433 77.709)"/><path class="a" d="M339.851,242.54a87.059,87.059,0,0,1-82.54,114.543q-1.286,0-2.563-.037" transform="translate(226.706 102.202)"/><path class="a" d="M292.826,234.77a86.345,86.345,0,0,1,4.094,8.022" transform="translate(266.569 94.068)"/><path class="a" d="M278.509,219.943a87.456,87.456,0,0,1,26.8,26.276" transform="translate(251.581 78.546)"/><path class="a" d="M213.5,300.449a87,87,0,0,1,83.134-86.908" transform="translate(183.525 71.844)"/><path class="a" d="M340.367,282.683a98.45,98.45,0,0,1-82.034,43.926q-2.293,0-4.56-.1" transform="translate(225.684 144.227)"/><path class="a" d="M307.159,254.994c.012.684.021,1.371.021,2.059a98.349,98.349,0,0,1-5.938,33.767" transform="translate(275.379 115.24)"/><path class="a" d="M286,218.348a98.377,98.377,0,0,1,36.94,70.928" transform="translate(259.427 76.877)"/><path class="a" d="M265.22,208.739a98.032,98.032,0,0,1,36.154,14.977" transform="translate(237.669 66.817)"/><path class="a" d="M256,207.857a99.274,99.274,0,0,1,15.485,1.21" transform="translate(228.017 65.894)"/><path class="a" d="M249.821,208.586q3.574-.458,7.223-.657" transform="translate(221.548 65.969)"/><path class="a" d="M222.353,233.106a98.5,98.5,0,0,1,36.324-22.561" transform="translate(192.793 68.708)"/><path class="a" d="M215,233.154q1.477-2.395,3.087-4.7" transform="translate(185.097 87.458)"/><path class="a" d="M211.794,241.841a98.8,98.8,0,0,1,4.826-9.659" transform="translate(181.739 91.359)"/><path class="a" d="M339.961,290.067A109.87,109.87,0,0,1,257.18,330.4" transform="translate(229.252 151.957)"/><path class="a" d="M310.629,255.253q.009.764.01,1.529a110.952,110.952,0,0,1-1.668,19.2" transform="translate(283.47 115.511)"/><path class="a" d="M225.349,221.829A110.11,110.11,0,0,1,397.8,303.116" transform="translate(195.929 59.986)"/><path class="a" d="M227.424,205.493q3.021-1.661,6.149-3.154" transform="translate(198.102 60.117)"/><path class="a" d="M338.761,298.5a121.216,121.216,0,0,1-80.6,34.572" transform="translate(230.28 160.785)"/><path class="a" d="M309.259,229.6a120.845,120.845,0,0,1,11.841,40.11" transform="translate(283.772 88.659)"/><path class="a" d="M284.685,203.94a122.213,122.213,0,0,1,46.224,45" transform="translate(258.046 61.793)"/><path class="a" d="M236.688,203.139a122.151,122.151,0,0,1,84.417,1.983" transform="translate(207.8 54.079)"/><path class="a" d="M233.51,199.1a133.594,133.594,0,0,1,106.883,6.511" transform="translate(204.473 48.173)"/><path class="a" d="M322.527,311.487a132.429,132.429,0,0,1-63.58,19.484" transform="translate(231.102 174.381)"/><path class="a" d="M306.54,299.779q-2.281,2.508-4.687,4.9" transform="translate(276.019 162.124)"/><path class="a" d="M288.006,199.331a133.307,133.307,0,0,1,66.005,94.817" transform="translate(261.523 56.968)"/><path class="a" d="M232.421,192.242a143.87,143.87,0,0,1,21.273-5.729" transform="translate(203.333 43.55)"/><path class="a" d="M313.789,319.752a143.942,143.942,0,0,1-53.09,13.937" transform="translate(232.936 183.033)"/><path class="a" d="M326.782,298.074a145.615,145.615,0,0,1-27.258,27.966" transform="translate(273.581 160.339)"/><path class="a" d="M311.425,212.08a144.181,144.181,0,0,1,27.436,56.555" transform="translate(286.039 70.315)"/><path class="a" d="M244.927,187.05a145,145,0,0,1,131.681,47.76" transform="translate(216.425 42.265)"/><path class="a" d="M226.24,189.874a155.173,155.173,0,0,1,25.291-8.239" transform="translate(196.862 38.443)"/><path class="a" d="M192.433,301.146a155.551,155.551,0,0,1-8.621-20.2" transform="translate(152.446 142.413)"/><path class="a" d="M301.237,327.927a155.434,155.434,0,0,1-38.215,8.417" transform="translate(235.368 191.591)"/><path class="a" d="M317.878,310.947a157.391,157.391,0,0,1-17.316,14.461" transform="translate(274.667 173.815)"/><path class="a" d="M307.176,199.33A156.37,156.37,0,0,1,351.36,267.8" transform="translate(281.591 56.967)"/><path class="a" d="M266.691,180.385a155.65,155.65,0,0,1,79.423,35.755" transform="translate(239.209 37.134)"/><path class="a" d="M250.533,180.038q5.545-.393,11.19-.4,6.93,0,13.712.594" transform="translate(222.294 36.358)"/><path class="a" d="M230.429,180.058q6.816-2.235,13.882-3.9" transform="translate(201.247 32.715)"/><path class="a" d="M191.961,314.416a166.828,166.828,0,0,1-14.942-36.3" transform="translate(145.334 139.451)"/><path class="a" d="M267.567,174.81A167.664,167.664,0,0,1,408.922,310.237" transform="translate(240.126 31.298)"/><path class="a" d="M247.357,174.921a170.232,170.232,0,0,1,36.563.129" transform="translate(218.969 30.45)"/><path class="a" d="M197.121,337.56a178.4,178.4,0,0,1-26.916-63.574" transform="translate(138.201 135.123)"/><path class="a" d="M256,168.357A179.169,179.169,0,0,1,435.289,341.61" transform="translate(228.017 24.543)"/><path class="a" d="M214.814,175.725q7.507-3.7,15.368-6.746" transform="translate(184.901 25.194)"/><path class="a" d="M197.852,350.955a189.992,189.992,0,0,1-33.616-78.084" transform="translate(131.952 133.955)"/><path class="a" d="M256,162.714c105.454,0,190.944,85.489,190.944,190.944q0,4.443-.2,8.836" transform="translate(228.017 18.635)"/><path class="a" d="M223.974,169.189q2.306-.844,4.638-1.627" transform="translate(194.49 23.71)"/><path class="a" d="M195.485,366.631A201.4,201.4,0,0,1,157.4,264.153" transform="translate(124.799 124.828)"/><path class="a" d="M354.895,258.6" transform="translate(331.547 119.019)"/><path class="a" d="M291.218,163.524a202.624,202.624,0,0,1,130.029,176.8" transform="translate(264.885 19.483)"/><path class="a" d="M168.983,203.653q3.789-5.671,7.923-11.08" transform="translate(136.922 49.894)"/><path class="a" d="M193.516,377.724a212.957,212.957,0,0,1-41.934-116.018" transform="translate(118.705 122.267)"/><path class="a" d="M302.618,162.369A214.14,214.14,0,0,1,420.452,335.522" transform="translate(276.82 18.274)"/><path class="a" d="M294.908,158.907q6.254,2.508,12.31,5.394" transform="translate(268.748 14.65)"/><path class="a" d="M252.374,151.554q3.694-.126,7.422-.125a216.409,216.409,0,0,1,22.661,1.185" transform="translate(224.221 6.821)"/><path class="a" d="M186.538,200.974a213.693,213.693,0,0,1,81.265-45.25" transform="translate(155.299 11.318)"/><path class="a" d="M160.665,217.323a226.242,226.242,0,0,1,23.029-32.58" transform="translate(128.214 41.697)"/><path class="a" d="M193.9,395.277A224.632,224.632,0,0,1,145.786,256" transform="translate(112.638 116.293)"/><path class="a" d="M311.177,160.571a225.735,225.735,0,0,1,110.281,162.5" transform="translate(285.78 16.392)"/><path class="a" d="M296.356,153.408q6.742,2.656,13.268,5.723" transform="translate(270.264 8.893)"/><path class="a" d="M182.137,200.3a225.1,225.1,0,0,1,94.711-51.028" transform="translate(150.692 4.559)"/><path class="a" d="M152.8,225.552a237.51,237.51,0,0,1,28.738-43.545" transform="translate(119.986 38.832)"/><path class="a" d="M140.471,253.512q.467-6.208,1.249-12.324" transform="translate(107.073 100.787)"/><path class="a" d="M194.295,406.846A236.17,236.17,0,0,1,140.143,256" transform="translate(106.73 116.293)"/><path class="a" d="M313.215,155.233A237.248,237.248,0,0,1,431.53,332.8" transform="translate(287.913 10.804)"/><path class="a" d="M305.413,151.178q4.627,2.186,9.145,4.565" transform="translate(279.746 6.559)"/><path class="a" d="M292.2,145.91q6.988,2.3,13.78,5.009" transform="translate(265.911 1.044)"/><path class="a" d="M180.732,191.7a236.679,236.679,0,0,1,84.488-46.486" transform="translate(149.221 0.31)"/><path class="a" d="M172.309,169.818q1.974-1.876,3.989-3.711" transform="translate(140.404 22.187)"/><path class="a" d="M144.495,243.486a248.984,248.984,0,0,1,45.764-70.04" transform="translate(111.286 29.87)"/><path class="a" d="M134.877,252.268q.457-5.821,1.181-11.565" transform="translate(101.217 100.279)"/><path class="a" d="M192.25,419.025A247.69,247.69,0,0,1,134.5,259.674q0-3.6.1-7.184" transform="translate(100.823 112.619)"/><path class="a" d="M323.084,154.682A248.525,248.525,0,0,1,434.016,346.969" transform="translate(298.245 10.227)"/><path class="a" d="M182.409,174.316a248.545,248.545,0,0,1,49.42-29.332" transform="translate(150.977 0.074)"/><path class="a" d="M161.057,180.445q8.213-9.211,17.265-17.621" transform="translate(128.624 18.75)"/><path class="a" d="M137.473,248.528A260.141,260.141,0,0,1,182.936,173" transform="translate(103.935 29.402)"/><path class="a" d="M129.52,246.672q.375-3.669.852-7.307" transform="translate(95.609 98.879)"/><path class="a" d="M191.8,425.714A259.217,259.217,0,0,1,128.857,256" transform="translate(94.915 116.293)"/><path class="a" d="M383.222,270q-.679,6.2-1.644,12.3" transform="translate(359.48 130.948)"/><path class="a" d="M383.433,262.2q-.292,6.076-.858,12.081" transform="translate(360.524 122.781)"/><path class="a" d="M326.576,150.228A260,260,0,0,1,442.347,364" transform="translate(301.901 5.564)"/><path class="a" d="M181.158,161.852a260.681,260.681,0,0,1,26.362-16.9" transform="translate(149.667 0.04)"/><path class="a" d="M176.9,374.294a272.312,272.312,0,0,1-39.973-59.459" transform="translate(103.363 177.886)"/><path class="a" d="M390.822,266.685a271.506,271.506,0,0,1-4.81,33.657" transform="translate(364.122 127.479)"/><path class="a" d="M334.606,148.97a271.414,271.414,0,0,1,110.9,219.076q0,5.849-.246,11.636" transform="translate(310.307 4.247)"/><path class="a" d="M173.445,159.4q9.665-7.682,20.024-14.486" transform="translate(141.593)"/><path class="a" d="M156.052,180.62a273.838,273.838,0,0,1,23.279-23.549" transform="translate(123.385 12.728)"/><path class="a" d="M128.533,269.356a271.2,271.2,0,0,1,53.37-99.1" transform="translate(94.576 26.53)"/><path class="a" d="M123.947,247.27q.55-5.216,1.292-10.374" transform="translate(89.775 96.294)"/><path class="a" d="M140.6,349.185a270.947,270.947,0,0,1-17.364-90.557" transform="translate(89.035 119.044)"/><path class="a" d="M171.816,373.093a284.424,284.424,0,0,1-34.136-45.2" transform="translate(104.152 191.555)"/><path class="a" d="M393.637,280.506q-1.188,6.644-2.681,13.182" transform="translate(369.298 141.948)"/><path class="a" d="M393.4,276.238q-.4,2.745-.858,5.475" transform="translate(370.957 137.48)"/><path class="a" d="M394.138,246.963q.593,9.174.6,18.5c0,1.1-.006,2.186-.02,3.279" transform="translate(372.629 106.833)"/><path class="a" d="M393.6,240.809q.3,2.754.548,5.526" transform="translate(372.071 100.39)"/><path class="a" d="M347.693,152.293a282.774,282.774,0,0,1,93.632,178.19" transform="translate(324.007 7.726)"/><path class="a" d="M152.944,179.6a284.979,284.979,0,0,1,33-31.336" transform="translate(120.131 3.511)"/><path class="a" d="M145.525,180.437q5.981-7.909,12.492-15.374" transform="translate(112.364 21.094)"/><path class="a" d="M119.645,282.944a281.524,281.524,0,0,1,37.892-99.613" transform="translate(85.271 40.219)"/><path class="a" d="M118.643,241.97q.4-3.218.876-6.415" transform="translate(84.222 94.89)"/><path class="a" d="M117.915,270.076q-.3-6.181-.338-12.427c0-.551-.006-1.1-.006-1.65" transform="translate(83.1 116.293)"/><path class="a" d="M125.053,306.779a282.119,282.119,0,0,1-6.241-32.164" transform="translate(84.399 135.781)"/><path class="a" d="M124.1,298.435q-.982-3.356-1.885-6.746" transform="translate(87.963 153.655)"/><path class="a" d="M111.976,271.478q-.049-2.683-.047-5.379,0-9.954.649-19.746" transform="translate(77.194 106.194)"/><path class="a" d="M174.195,382.242a296.432,296.432,0,0,1-38.43-46.841" transform="translate(102.147 199.417)"/><path class="a" d="M165.831,368.477q-2.591-2.183-5.127-4.423" transform="translate(128.255 229.411)"/><path class="a" d="M397.886,284.541q-.6,2.969-1.253,5.915" transform="translate(375.241 146.172)"/><path class="a" d="M400.435,271.093q-.881,8.483-2.239,16.817" transform="translate(376.877 132.094)"/><path class="a" d="M359.342,155.615a293.942,293.942,0,0,1,81.486,171.976" transform="translate(336.202 11.204)"/><path class="a" d="M152.193,164.572q8.308-8.631,17.3-16.573" transform="translate(119.345 3.231)"/><path class="a" d="M149.585,160.487q1.446-1.584,2.915-3.146" transform="translate(116.615 13.01)"/><path class="a" d="M137.09,188.23a296.613,296.613,0,0,1,20.54-26.589" transform="translate(103.534 17.512)"/><path class="a" d="M114.919,274.746a293.069,293.069,0,0,1,37.292-94.027" transform="translate(80.324 37.484)"/><path class="a" d="M106.3,270.894a309.513,309.513,0,0,1,2.09-32.559" transform="translate(71.297 97.8)"/><path class="a" d="M178.523,390.469a308.312,308.312,0,0,1-39.629-41.183" transform="translate(105.423 213.951)"/><path class="a" d="M404.758,283.371q-1.339,7.237-3.011,14.355" transform="translate(380.595 144.947)"/><path class="a" d="M407.4,265.348a307.228,307.228,0,0,1-3.858,33.172" transform="translate(382.474 126.079)"/><path class="a" d="M366.22,154.678a305.339,305.339,0,0,1,78.7,170.967" transform="translate(343.402 10.223)"/><path class="a" d="M140.536,172.178q9.7-11.735,20.506-22.458" transform="translate(107.142 5.032)"/><path class="a" d="M109.276,292.8A305.219,305.219,0,0,1,170.5,162.347" transform="translate(74.416 18.251)"/><path class="a" d="M100.758,260.445q.393-10.328,1.439-20.485" transform="translate(65.499 99.501)"/><path class="a" d="M408.789,287.842q-.651,3.128-1.365,6.239" transform="translate(386.538 149.628)"/><path class="a" d="M413.489,262.193a319.08,319.08,0,0,1-4.4,41.826" transform="translate(388.275 122.776)"/><path class="a" d="M411.393,257.4q-.022,2.475-.082,4.939" transform="translate(390.607 117.757)"/><path class="a" d="M376.391,157.8a316.581,316.581,0,0,1,68.222,154.686" transform="translate(354.05 13.491)"/><path class="a" d="M102.926,309.73A316.921,316.921,0,0,1,179.1,152.494" transform="translate(67.769 7.936)"/><path class="a" d="M95.167,344.266a327.974,327.974,0,0,1,68.959-187.049" transform="translate(59.646 12.881)"/><path class="a" d="M417.085,307.067a327.779,327.779,0,0,1-16.33,39.9" transform="translate(379.556 169.754)"/><path class="a" d="M414.757,287.641q-.8,4-1.691,7.964" transform="translate(392.444 149.417)"/><path class="a" d="M418.061,272.959q-1.385,13.233-3.8,26.142" transform="translate(393.694 134.047)"/><path class="a" d="M416.974,263.217q-.111,2.527-.26,5.046" transform="translate(396.263 123.848)"/><path class="a" d="M416.4,241.984q1.225,14.182,1.232,28.689,0,1.861-.021,3.715" transform="translate(395.932 101.62)"/><path class="a" d="M383.577,157.777a328.273,328.273,0,0,1,58.991,122.491" transform="translate(361.573 13.467)"/><path class="a" d="M378.667,151.718q3.024,3.555,5.95,7.195" transform="translate(356.433 7.124)"/><path class="a" d="M130.007,159.349q2.831-3.552,5.756-7.025" transform="translate(96.119 7.758)"/><path class="a" d="M89.567,343.92a339.413,339.413,0,0,1,68.521-188.4" transform="translate(53.784 11.108)"/><path class="a" d="M430.447,301.483A338.807,338.807,0,0,1,402.9,369.554" transform="translate(381.806 163.908)"/><path class="a" d="M419.37,292.022q-.6,2.708-1.234,5.4" transform="translate(397.752 154.003)"/><path class="a" d="M419.929,288.371q-.405,2.063-.837,4.118" transform="translate(398.752 150.181)"/><path class="a" d="M421.164,281.936q-.488,3.11-1.03,6.2" transform="translate(399.843 143.445)"/><path class="a" d="M422.129,272q-.224,2.33-.477,4.653" transform="translate(401.432 133.043)"/><path class="a" d="M422.981,256q0,10.78-.661,21.4" transform="translate(402.132 116.293)"/><path class="a" d="M418.261,217.874q1.67,7.126,3.036,14.365" transform="translate(397.882 76.38)"/><path class="a" d="M388.315,154.682A340.129,340.129,0,0,1,443.21,260.525" transform="translate(366.533 10.227)"/><path class="a" d="M123.992,158.6q3.3-4.277,6.73-8.443" transform="translate(89.822 5.491)"/><path class="a" d="M84.446,321.506A350.551,350.551,0,0,1,139.787,162.17" transform="translate(48.423 18.066)"/><path class="a" d="M436.042,297.091a350,350,0,0,1-24.806,69.033" transform="translate(390.528 159.31)"/><path class="a" d="M425.932,287.436q-.476,2.591-.993,5.168" transform="translate(404.873 149.203)"/><path class="a" d="M427.138,278.913q-.338,2.539-.71,5.07" transform="translate(406.432 140.28)"/><path class="a" d="M428.246,271.68q-.547,6.064-1.3,12.066" transform="translate(406.977 132.708)"/><path class="a" d="M423.132,214.009q1.7,6.773,3.13,13.648" transform="translate(402.982 72.334)"/><path class="a" d="M413.151,185.286q5.778,12.818,10.546,26.163" transform="translate(392.533 42.265)"/><path class="a" d="M396.76,156.633a352.462,352.462,0,0,1,28.419,47.762" transform="translate(375.374 12.269)"/><path class="a" d="M393.372,152.007q2.06,2.717,4.069,5.475" transform="translate(371.827 7.426)"/><path class="a" d="M112.294,167.043q4.016-6.061,8.275-11.943" transform="translate(77.576 10.664)"/><path class="a" d="M78.9,244.269q.528-5.481,1.218-10.91" transform="translate(42.62 92.591)"/><path class="a" d="M442.188,293.167a361.518,361.518,0,0,1-23.75,72.772" transform="translate(398.068 155.202)"/><path class="a" d="M432.073,284.179q-.344,2.152-.71,4.3" transform="translate(411.598 145.793)"/><path class="a" d="M433.8,275.2q-.746,6.933-1.746,13.786" transform="translate(412.32 136.394)"/><path class="a" d="M424.911,199.921A361.391,361.391,0,0,1,435.7,239.986" transform="translate(404.844 57.586)"/><path class="a" d="M423.489,195.808q.921,2.554,1.8,5.127" transform="translate(403.356 53.28)"/><path class="a" d="M422.059,191.968q.86,2.229,1.693,4.477" transform="translate(401.858 49.26)"/><path class="a" d="M405.511,159.5a363.275,363.275,0,0,1,23.516,42.284" transform="translate(384.535 15.269)"/><path class="a" d="M79.931,303.407a361.954,361.954,0,0,1,53.392-143.174" transform="translate(43.696 16.038)"/><path class="a" d="M74.131,304.452a373.341,373.341,0,0,1,51.131-143.815" transform="translate(37.624 16.461)"/><path class="a" d="M448.436,292.282a372.992,372.992,0,0,1-24.341,76.977" transform="translate(403.99 154.276)"/><path class="a" d="M439.493,276.238q-.847,7.713-2,15.327" transform="translate(418.014 137.48)"/><path class="a" d="M431.006,200.416q1.793,5.659,3.414,11.391" transform="translate(411.225 58.104)"/><path class="a" d="M413.637,161.875a374.87,374.87,0,0,1,18.931,35.92" transform="translate(393.042 17.757)"/><path class="a" d="M68.965,230.384q.479-3.132,1.005-6.243" transform="translate(32.216 82.941)"/><path class="a" d="M451.779,302.08A384.6,384.6,0,0,1,427.9,369.854" transform="translate(407.969 164.533)"/><path class="a" d="M446.051,277.873q-1.572,13.66-4.081,27.021" transform="translate(422.703 139.191)"/><path class="a" d="M428.286,177.66q4.63,10.169,8.687,20.647" transform="translate(408.377 34.282)"/><path class="a" d="M419.987,161.542q8.539,14.793,15.788,30.384" transform="translate(399.689 17.408)"/><path class="a" d="M70.433,280.346a384.744,384.744,0,0,1,45.9-120.251" transform="translate(33.753 15.894)"/><path class="a" d="M66.517,213.667q.78-3.245,1.611-6.468" transform="translate(29.654 65.205)"/><path class="a" d="M464.073,292.282a395.988,395.988,0,0,1-32.431,98.653" transform="translate(411.891 154.276)"/><path class="a" d="M451.111,279.345q-1.308,10.958-3.2,21.73" transform="translate(428.919 140.732)"/><path class="a" d="M425.951,160.61a396.579,396.579,0,0,1,27.88,61.164" transform="translate(405.933 16.433)"/><path class="a" d="M75.8,204.77A397.355,397.355,0,0,1,97.83,159.7" transform="translate(39.374 15.478)"/><path class="a" d="M430.911,157.915q1.2,2.137,2.376,4.286" transform="translate(411.125 13.611)"/><path class="a" d="M70.966,200a408.4,408.4,0,0,1,20.346-41.762" transform="translate(34.311 13.954)"/><path class="a" d="M441.614,341.578q-3.964,8.391-8.3,16.571" transform="translate(413.645 205.882)"/><path class="a" d="M464.969,301.483a407.481,407.481,0,0,1-26.689,78.08" transform="translate(418.84 163.908)"/><path class="a" d="M456.759,281.038q-1.446,11.612-3.533,23.015" transform="translate(434.486 142.505)"/><path class="a" d="M433.235,162.17q7.728,14.565,14.3,29.806" transform="translate(413.558 18.066)"/><path class="a" d="M64.881,198.436A420.355,420.355,0,0,1,82.959,159.65" transform="translate(27.941 15.428)"/><path class="a" d="M464.858,311.173A418.671,418.671,0,0,1,444.95,367.21" transform="translate(425.822 174.052)"/><path class="a" d="M460.239,289.927q-.8,4.839-1.711,9.639" transform="translate(440.037 151.81)"/><path class="a" d="M460.883,282.627q-.411,3.184-.868,6.353" transform="translate(441.593 144.168)"/><path class="a" d="M439.7,162.369q5.883,11.514,11.067,23.428" transform="translate(420.327 18.274)"/><path class="a" d="M57.352,204.653a430.56,430.56,0,0,1,18.907-43.5" transform="translate(20.059 16.999)"/><path class="a" d="M456.029,328.72q-1.016,2.779-2.069,5.543" transform="translate(435.255 192.421)"/><path class="a" d="M462.368,316.621q-3.064,10.282-6.622,20.346" transform="translate(437.125 179.755)"/><path class="a" d="M446.731,163.829q2.057,4.252,4.026,8.558" transform="translate(427.687 19.803)"/><path class="a" d="M50.568,204.991q7.092-20.408,16.074-39.879" transform="translate(12.957 21.146)"/><path class="a" d="M472.094,286.278q-.685,4.925-1.48,9.817" transform="translate(452.689 147.99)"/><path class="a" d="M453.336,164.586q1.366,2.951,2.694,5.922" transform="translate(434.601 20.595)"/><path class="a" d="M44.634,188.471q1.317-3.9,2.7-7.764" transform="translate(6.745 37.472)"/><path class="a" d="M463.849,345.643q-3.31,7.537-6.884,14.932" transform="translate(438.4 210.137)"/><path class="a" d="M476.9,289.084q-.258,1.729-.528,3.453" transform="translate(458.722 150.928)"/><path class="a" d="M50.937,171.188q1.323-3.083,2.69-6.139" transform="translate(13.343 21.08)"/><path class="a" d="M46.69,186.546q2.862-7.749,6-15.364" transform="translate(8.897 27.5)"/><path class="a" d="M38.191,189.909q1.228-3.819,2.518-7.612" transform="translate(0 39.136)"/><path class="a" d="M471.2,342.306q-3.122,7.66-6.507,15.182" transform="translate(446.488 206.644)"/><path class="a" d="M479.482,337.387q-3.383,9.137-7.123,18.094" transform="translate(454.516 201.495)"/><path class="a" d="M479.624,330.422q-1.271,3.792-2.6,7.557" transform="translate(459.399 194.203)"/><path class="a" d="M486.188,334.432q-3.061,8.849-6.444,17.544" transform="translate(462.247 198.401)"/></g></svg>