<svg xmlns="http://www.w3.org/2000/svg" width="128" height="25.337" viewBox="0 0 128 25.337"><defs><style>.a{fill:#fff;}</style></defs><g transform="translate(-50.277 -57.082)"><g transform="translate(87.193 65.052)"><g transform="translate(0 0)"><path class="a" d="M141.136,81.247q-.641,2.438-1.363,4.844t-1.523,4.843h-3.72q-.579-1.347-1.255-3.207t-1.4-4.057q-.724-2.2-1.48-4.651t-1.464-4.955h5.036q.258,1.155.565,2.517t.645,2.807q.339,1.443.71,2.9t.758,2.807q.416-1.411.818-2.887t.769-2.9q.369-1.426.706-2.758t.594-2.486H143q.256,1.155.577,2.486t.673,2.758q.352,1.428.738,2.9t.8,2.887q.387-1.347.774-2.807t.726-2.9q.339-1.443.645-2.807t.565-2.517h4.972q-.708,2.5-1.464,4.955t-1.48,4.651q-.723,2.2-1.415,4.057t-1.27,3.207h-3.72q-.8-2.437-1.572-4.843T141.136,81.247Z" transform="translate(-128.932 -74.063)"/></g></g><g transform="translate(70.547 64.715)"><g transform="translate(0 0)"><path class="a" d="M93.466,74.308a26.653,26.653,0,0,1,3.143-.658,25.762,25.762,0,0,1,4.041-.306,9.859,9.859,0,0,1,3.576.561,5.392,5.392,0,0,1,2.261,1.587,6.2,6.2,0,0,1,1.186,2.439,12.942,12.942,0,0,1,.353,3.142V90.6h-4.779V81.653a6.444,6.444,0,0,0-.61-3.272,2.487,2.487,0,0,0-2.277-.962q-.513,0-1.09.048c-.385.031-.727.069-1.026.112V90.6H93.466Z" transform="translate(-93.466 -73.345)"/></g></g><g transform="translate(112.82 64.651)"><path class="a" d="M190.72,73.209a11.063,11.063,0,0,1,3.528.481,5.482,5.482,0,0,1,2.261,1.379,5.076,5.076,0,0,1,1.2,2.181,10.764,10.764,0,0,1,.353,2.855v9.943q-1.026.225-2.855.529a27.536,27.536,0,0,1-4.426.3,14.033,14.033,0,0,1-2.967-.289,6.432,6.432,0,0,1-2.293-.945,4.329,4.329,0,0,1-1.475-1.716,5.925,5.925,0,0,1-.513-2.6,4.917,4.917,0,0,1,.594-2.5,4.574,4.574,0,0,1,1.587-1.637,7.218,7.218,0,0,1,2.277-.881,12.81,12.81,0,0,1,2.662-.273,15.113,15.113,0,0,1,1.652.08,7.432,7.432,0,0,1,1.171.208v-.448a2.646,2.646,0,0,0-.738-1.957,3.569,3.569,0,0,0-2.566-.738,16.307,16.307,0,0,0-2.406.177,10.328,10.328,0,0,0-2.052.5l-.609-3.849c.277-.085.625-.177,1.042-.273s.871-.181,1.363-.256,1.01-.139,1.555-.192S190.164,73.209,190.72,73.209Zm.385,13.984c.47,0,.919-.01,1.347-.032a8.887,8.887,0,0,0,1.026-.1V83.44q-.289-.064-.866-.128a9.369,9.369,0,0,0-2.325.015,3.322,3.322,0,0,0-1.042.306,1.777,1.777,0,0,0-.705.609,1.693,1.693,0,0,0-.257.962,1.638,1.638,0,0,0,.754,1.556A4.161,4.161,0,0,0,191.1,87.193Z" transform="translate(-183.535 -73.209)"/></g><g transform="translate(147.711 64.651)"><g transform="translate(0)"><path class="a" d="M257.874,82.222a10.306,10.306,0,0,1,.69-3.928,8.409,8.409,0,0,1,1.812-2.807,7.527,7.527,0,0,1,2.582-1.7,8.081,8.081,0,0,1,3-.577,7.454,7.454,0,0,1,5.677,2.2q2.085,2.2,2.085,6.463,0,.417-.032.914c-.021.331-.043.625-.064.881H262.781a3.173,3.173,0,0,0,1.379,2.341,5.541,5.541,0,0,0,3.271.866,13.755,13.755,0,0,0,2.582-.24,9.73,9.73,0,0,0,2.069-.593l.642,3.881a6.476,6.476,0,0,1-1.026.384,13.242,13.242,0,0,1-1.427.337q-.786.144-1.684.24a16.563,16.563,0,0,1-1.8.1,10.616,10.616,0,0,1-3.961-.674,7.7,7.7,0,0,1-2.791-1.844,7.3,7.3,0,0,1-1.635-2.774A10.992,10.992,0,0,1,257.874,82.222ZM269.1,80.394a4.939,4.939,0,0,0-.209-1.187,2.973,2.973,0,0,0-.545-1.027,2.914,2.914,0,0,0-.93-.737,3.031,3.031,0,0,0-1.395-.289,3.214,3.214,0,0,0-1.379.272,2.853,2.853,0,0,0-.962.723,3.226,3.226,0,0,0-.593,1.041,6.851,6.851,0,0,0-.305,1.2Z" transform="translate(-257.874 -73.209)"/></g></g><g transform="translate(167.083 60.129)"><g transform="translate(0 0)"><path class="a" d="M299.15,66.634l4.779-3.061v4.972h5.741v3.977h-5.741v5.933a4.72,4.72,0,0,0,.529,2.406,2.271,2.271,0,0,0,2.133.9,9.13,9.13,0,0,0,1.588-.144,8.159,8.159,0,0,0,1.491-.4l.673,3.721a13.642,13.642,0,0,1-1.924.609,11.25,11.25,0,0,1-2.6.256,8.559,8.559,0,0,1-3.239-.529,5.075,5.075,0,0,1-2.053-1.476,5.489,5.489,0,0,1-1.074-2.293,13.5,13.5,0,0,1-.305-2.982Z" transform="translate(-299.15 -63.573)"/></g></g><path class="a" d="M245.209,81.971V60.143l-4.779-3.061V81.971Z" transform="translate(-100.906)"/><path class="a" d="M228.5,81.971V57.082l-4.779,3.061V81.971Z" transform="translate(-92.038)"/><path class="a" d="M66.25,78.437a8.172,8.172,0,0,0-1.7-2.791,7.619,7.619,0,0,0-2.614-1.8,8.985,8.985,0,0,0-6.671,0,7.774,7.774,0,0,0-2.63,1.8A8.209,8.209,0,0,0,50.9,78.437a10.071,10.071,0,0,0-.626,3.625,10.437,10.437,0,0,0,.61,3.64,8.284,8.284,0,0,0,1.7,2.823,7.487,7.487,0,0,0,2.6,1.805l3.45-3.458h-.053a2.9,2.9,0,0,1-2.534-1.3,6.08,6.08,0,0,1-.9-3.511,5.928,5.928,0,0,1,.9-3.48,2.925,2.925,0,0,1,2.534-1.267A2.884,2.884,0,0,1,61.1,78.582a6.007,6.007,0,0,1,.882,3.48,6.162,6.162,0,0,1-.882,3.511,2.85,2.85,0,0,1-2.46,1.3h0l0,4.1A8.716,8.716,0,0,0,62,90.337a7.508,7.508,0,0,0,2.614-1.812A7.914,7.914,0,0,0,66.282,85.7a10.966,10.966,0,0,0,.577-3.64A10.321,10.321,0,0,0,66.25,78.437Z" transform="translate(0 -8.558)"/></g></svg>