<svg xmlns="http://www.w3.org/2000/svg" width="48" height="42" viewBox="0 0 48 42"><defs><style>.a{fill:#50af95;}.b{fill:#fff;}</style></defs><g transform="translate(-6 -313)"><path class="a" d="M14.843,313H45.014L54,331.623,30,355,6,331.623Z" transform="translate(0 0)"/><path class="b" d="M509.159,623.317v-3.622h8.284v-5.519H494.886v5.519h8.285v3.619c-6.733.309-11.8,1.643-11.8,3.24s5.065,2.931,11.8,3.242v11.6h5.99v-11.6c6.721-.31,11.773-1.643,11.773-3.239s-5.052-2.928-11.773-3.239m0,5.495v0c-.169.011-1.037.063-2.971.063-1.546,0-2.633-.044-3.017-.064v0c-5.948-.263-10.388-1.3-10.388-2.539s4.441-2.274,10.388-2.538v4.045c.39.027,1.5.093,3.042.093,1.847,0,2.776-.077,2.946-.093v-4.045c5.937.264,10.367,1.3,10.367,2.536s-4.432,2.272-10.367,2.537" transform="translate(-475.92 -295.308)"/></g></svg>