<svg xmlns="http://www.w3.org/2000/svg" width="137" height="25" viewBox="0 0 137 25">
  <defs>
    <style>
      .cls-1 {
        fill: #fff;
        fill-rule: evenodd;
      }
    </style>
  </defs>
  <path id="landing" class="cls-1" d="M508.206,213.922q-0.644,2.407-1.365,4.784t-1.527,4.783h-3.727q-0.579-1.331-1.256-3.168t-1.4-4.007q-0.724-2.169-1.482-4.594t-1.466-4.893h5.044q0.26,1.14.565,2.486t0.647,2.772q0.339,1.425.711,2.867t0.76,2.772q0.417-1.394.819-2.852t0.771-2.867q0.369-1.409.707-2.723t0.6-2.455h3.47q0.255,1.14.578,2.455t0.674,2.723q0.354,1.41.739,2.867t0.8,2.852q0.387-1.331.775-2.772t0.727-2.867q0.341-1.425.647-2.772t0.565-2.486h4.981q-0.709,2.469-1.467,4.893t-1.482,4.594q-0.724,2.169-1.418,4.007t-1.272,3.168h-3.727q-0.8-2.406-1.574-4.783T508.206,213.922Zm-28.9-6.477a27.159,27.159,0,0,1,3.149-.65,26.18,26.18,0,0,1,4.048-.3,10,10,0,0,1,3.582.554,5.4,5.4,0,0,1,2.266,1.568,6.094,6.094,0,0,1,1.188,2.409,12.607,12.607,0,0,1,.354,3.1v9.409h-4.787V214.7a6.282,6.282,0,0,0-.611-3.231,2.507,2.507,0,0,0-2.281-.95c-0.343,0-.707.015-1.093,0.047s-0.728.069-1.028,0.111v12.861h-4.787V207.445Zm49.543-1.014a11.227,11.227,0,0,1,3.534.475,5.506,5.506,0,0,1,2.265,1.362,5,5,0,0,1,1.2,2.155,10.506,10.506,0,0,1,.354,2.819v9.82q-1.029.222-2.86,0.522a27.938,27.938,0,0,1-4.434.3,14.259,14.259,0,0,1-2.972-.285,6.506,6.506,0,0,1-2.3-.934,4.283,4.283,0,0,1-1.477-1.695,5.775,5.775,0,0,1-.515-2.566,4.8,4.8,0,0,1,.595-2.47,4.537,4.537,0,0,1,1.59-1.617,7.286,7.286,0,0,1,2.281-.87,13.005,13.005,0,0,1,2.667-.27,15.056,15.056,0,0,1,1.655.08,7.544,7.544,0,0,1,1.172.2V213.02a2.591,2.591,0,0,0-.739-1.932,3.606,3.606,0,0,0-2.57-.73,16.615,16.615,0,0,0-2.41.175,10.475,10.475,0,0,0-2.056.492l-0.61-3.8c0.278-.084.626-0.175,1.044-0.27s0.872-.179,1.365-0.253,1.012-.137,1.559-0.19S528.292,206.431,528.849,206.431Zm0.386,13.811q0.707,0,1.349-.032a9.065,9.065,0,0,0,1.028-.095v-3.579q-0.288-.063-0.868-0.126a9.532,9.532,0,0,0-2.329.015,3.354,3.354,0,0,0-1.044.3,1.767,1.767,0,0,0-.706.6,1.655,1.655,0,0,0-.258.95,1.612,1.612,0,0,0,.756,1.537A4.217,4.217,0,0,0,529.235,220.242Zm27.368-4.91a10.069,10.069,0,0,1,.69-3.88,8.309,8.309,0,0,1,1.816-2.772A7.55,7.55,0,0,1,561.7,207a8.2,8.2,0,0,1,3-.57,7.521,7.521,0,0,1,5.687,2.17q2.088,2.171,2.088,6.383c0,0.274-.01.576-0.032,0.9s-0.043.618-.064,0.871h-10.86a3.127,3.127,0,0,0,1.382,2.312,5.613,5.613,0,0,0,3.277.855,13.969,13.969,0,0,0,2.586-.237,9.882,9.882,0,0,0,2.073-.586l0.643,3.833a6.636,6.636,0,0,1-1.029.38,13.547,13.547,0,0,1-1.429.332q-0.787.142-1.687,0.238a16.953,16.953,0,0,1-1.8.095,10.77,10.77,0,0,1-3.968-.665,7.727,7.727,0,0,1-2.8-1.821,7.2,7.2,0,0,1-1.638-2.74A10.727,10.727,0,0,1,556.6,215.332Zm11.245-1.805a4.829,4.829,0,0,0-.209-1.172,2.841,2.841,0,0,0-1.478-1.742,3.07,3.07,0,0,0-1.4-.285,3.257,3.257,0,0,0-1.382.268,2.852,2.852,0,0,0-.964.714,3.177,3.177,0,0,0-.594,1.028,6.7,6.7,0,0,0-.306,1.189h6.33Zm8.16-8.54,4.788-3.023v4.911h5.751V210.8H580.8v5.86a4.6,4.6,0,0,0,.53,2.376,2.288,2.288,0,0,0,2.136.886,9.272,9.272,0,0,0,1.591-.142,8.291,8.291,0,0,0,1.494-.4l0.674,3.675a13.819,13.819,0,0,1-1.927.6,11.444,11.444,0,0,1-2.6.253,8.688,8.688,0,0,1-3.245-.523,5.087,5.087,0,0,1-2.056-1.457,5.386,5.386,0,0,1-1.076-2.265,13.155,13.155,0,0,1-.306-2.945v-11.74ZM475,211.6a8.054,8.054,0,0,0-1.7-2.757,7.636,7.636,0,0,0-2.619-1.773,9.123,9.123,0,0,0-6.683,0,7.8,7.8,0,0,0-2.634,1.773,8.108,8.108,0,0,0-1.735,2.757,9.818,9.818,0,0,0-.627,3.58,10.16,10.16,0,0,0,.611,3.595,8.159,8.159,0,0,0,1.7,2.787,7.505,7.505,0,0,0,2.618,1.79c0.034,0.014.069,0.023,0.1,0.036l3.347-3.3v3.893a8.821,8.821,0,0,0,3.362-.63,7.533,7.533,0,0,0,2.618-1.79,7.8,7.8,0,0,0,1.671-2.787,10.707,10.707,0,0,0,.578-3.595A10.077,10.077,0,0,0,475,211.6Zm-5.157,7.048a2.881,2.881,0,0,1-2.522,1.282,2.921,2.921,0,0,1-2.539-1.282,5.945,5.945,0,0,1-.9-3.468,5.8,5.8,0,0,1,.9-3.438,2.945,2.945,0,0,1,2.539-1.251,2.9,2.9,0,0,1,2.522,1.251,5.874,5.874,0,0,1,.883,3.438A6.022,6.022,0,0,1,469.845,218.643Zm83.343,4.894V201.978l-4.787-3.023v24.582h4.787Zm-7.857,0V198.955l-4.787,3.023v21.559h4.787Zm43.234-20.727a3.965,3.965,0,0,1,.489-1.935,3.673,3.673,0,0,1,6.454,0,4.068,4.068,0,0,1-.007,3.884,3.681,3.681,0,0,1-1.359,1.406,3.647,3.647,0,0,1-3.732,0,3.687,3.687,0,0,1-1.353-1.409A3.955,3.955,0,0,1,588.565,202.81Zm0.639,0a3.351,3.351,0,0,0,.389,1.59,3.054,3.054,0,0,0,1.108,1.185,3.015,3.015,0,0,0,3.153,0,3.052,3.052,0,0,0,1.107-1.182,3.427,3.427,0,0,0,0-3.187,3.034,3.034,0,0,0-1.109-1.176,2.935,2.935,0,0,0-1.571-.442,2.982,2.982,0,0,0-1.546.423,3.015,3.015,0,0,0-1.123,1.167A3.312,3.312,0,0,0,589.2,202.81Zm2.324,0.393v1.739h-0.791v-4.387h1.471a1.954,1.954,0,0,1,1.254.361,1.217,1.217,0,0,1,.447,1,0.961,0.961,0,0,1-.56.877,0.9,0.9,0,0,1,.424.454,1.87,1.87,0,0,1,.121.715q0,0.426.018,0.6a0.975,0.975,0,0,0,.071.294v0.083h-0.812a4.072,4.072,0,0,1-.068-1,0.772,0.772,0,0,0-.173-0.565,0.789,0.789,0,0,0-.575-0.173h-0.827Zm0-.692h0.67a1.247,1.247,0,0,0,.662-0.162,0.5,0.5,0,0,0,.264-0.437,0.628,0.628,0,0,0-.186-0.513,1.108,1.108,0,0,0-.672-0.157h-0.738v1.269Z" transform="translate(-459 -198.969)"/>
</svg>
