<svg xmlns="http://www.w3.org/2000/svg" width="1920" height="843.668" viewBox="0 0 1920 843.668"><defs><style>.a{fill:#2b56f5;}</style></defs><path class="a" d="M1780.377,49.292c-62.055-10.975-72.92-23.693-114.377-33.4-118.362-27.712-188.778,38.729-342,26.729-98.8-7.738-82.577-36.387-177-42.173-140.667-8.62-178.376,54.86-332.634,49.2C721.13,46.226,703.8,21.895,630.748,33.078,560.574,43.82,532.447,74.416,468,69.756c-38.767-2.8-61-14.613-88.895-24.88C243.992-4.865,104,28.26,0,59.848v783.41a346.691,346.691,0,0,0,72.728-6.43c91.08-18.895,94.649-55.547,179.346-83.582,167.211-55.35,222.741,80.8,452.4,53.121,60.639-7.307,99.879-21.995,184.244-19.252,87.86,2.856,151.836,22.251,176.768,29.15,235.271,65.1,335.974-57.637,693.739-26.333,40.712,3.563,101.844,10.787,160.774,9.371V57.472C1886.762,58.964,1835.989,59.128,1780.377,49.292Z" transform="translate(0 0.357)"/></svg>